<svg width="13" height="13" viewBox="0 0 13 13" fill="none" xmlns="http://www.w3.org/2000/svg">
<path fill-rule="evenodd" clip-rule="evenodd" d="M9.0719 0.529345C8.67761 0.499994 8.19384 0.499997 7.58609 0.5H5.41397C4.80622 0.499997 4.32245 0.499994 3.92816 0.529345C3.5235 0.559468 3.17757 0.622311 2.85101 0.766132C2.3181 1.00083 1.8618 1.37926 1.53464 1.859C1.33383 2.15345 1.21065 2.48104 1.11008 2.87106C1.01219 3.25065 0.928037 3.72244 0.822504 4.31407L0.329981 7.07514C0.184575 7.89025 0.0696407 8.53455 0.0231525 9.05556C-0.0242047 9.58631 -0.00680995 10.0432 0.149915 10.4694C0.401204 11.1526 0.887321 11.7251 1.52152 12.0873C1.91624 12.3128 2.36564 12.4088 2.901 12.4548C3.42703 12.5 4.08779 12.5 4.92507 12.5H8.07498C8.91227 12.5 9.57303 12.5 10.0991 12.4548C10.6344 12.4088 11.0838 12.3128 11.4785 12.0873C12.1127 11.7251 12.5989 11.1526 12.8501 10.4694C13.0069 10.0432 13.0243 9.58631 12.9769 9.05556C12.9304 8.53455 12.8155 7.89026 12.6701 7.07515L12.1776 4.31407C12.072 3.72244 11.9879 3.25065 11.89 2.87106C11.7894 2.48104 11.6662 2.15345 11.4654 1.859C11.1383 1.37926 10.682 1.00083 10.1491 0.766132C9.82249 0.622311 9.47656 0.559468 9.0719 0.529345ZM3.96619 3.11204C4.20704 2.97695 4.51179 3.06267 4.64688 3.30352C5.00737 3.94621 5.70121 4.38235 6.50003 4.38235C7.29884 4.38235 7.99268 3.94621 8.35317 3.30352C8.48827 3.06267 8.79302 2.97695 9.03386 3.11204C9.2747 3.24713 9.36043 3.55188 9.22534 3.79272C8.69321 4.74142 7.67128 5.38235 6.50003 5.38235C5.32878 5.38235 4.30684 4.74142 3.77471 3.79272C3.63962 3.55188 3.72535 3.24713 3.96619 3.11204Z" fill="white"/>
</svg>
