<svg width="29" height="26" viewBox="0 0 29 26" fill="none" xmlns="http://www.w3.org/2000/svg">
<path d="M15.4354 0.0850666C14.3932 -1.20401e-05 13.0981 -6.55774e-06 11.4542 1.17985e-07H10.5646C8.92065 -6.55774e-06 7.6256 -1.20401e-05 6.5834 0.0850666C5.52013 0.171864 4.63222 0.352174 3.82533 0.762955C2.50707 1.43407 1.43529 2.50493 0.763606 3.82207C0.352474 4.62827 0.172011 5.51543 0.0851392 6.57778C-1.20476e-05 7.61909 -6.56333e-06 8.91304 1.18085e-07 10.5556V15.4444C-6.56333e-06 17.087 -1.20476e-05 18.3809 0.0851392 19.4222C0.172011 20.4846 0.352474 21.3717 0.763606 22.1779C1.43529 23.4951 2.50707 24.5659 3.82533 25.237C4.63222 25.6478 5.52013 25.8281 6.5834 25.9149C7.62559 26 8.92064 26 10.5646 26H11.4542C13.0981 26 14.3932 26 15.4354 25.9149C16.4986 25.8281 17.3866 25.6478 18.1935 25.237C19.5117 24.5659 20.5835 23.4951 21.2552 22.1779C21.6978 21.3099 21.8812 20.5181 21.9592 19.4128C22.0435 18.3731 22.0435 17.0821 22.0435 15.4445V14H16.0137C15.4609 14 15.0128 13.5523 15.0128 13C15.0128 12.4477 15.4609 12 16.0137 12H22.0435V10.5557C22.0435 8.91899 22.0435 7.6284 21.9593 6.58899C21.8814 5.48274 21.6981 4.69056 21.2552 3.82207C20.5835 2.50493 19.5117 1.43407 18.1935 0.762955C17.3866 0.352174 16.4986 0.171864 15.4354 0.0850666Z" fill="white"/>
<path d="M23.5547 9.36679C23.9048 8.93935 24.5353 8.87635 24.9631 9.22607L28.6329 12.2261C28.8653 12.416 29 12.7001 29 13C29 13.3 28.8653 13.5841 28.6329 13.774L24.9631 16.774C24.5353 17.1237 23.9048 17.0607 23.5547 16.6333C23.2047 16.2058 23.2678 15.5758 23.6956 15.2261L25.1953 14H23.0196C22.4669 14 22.0188 13.5523 22.0188 13C22.0188 12.4477 22.4669 12 23.0196 12H25.1953L23.6956 10.774C23.2678 10.4243 23.2047 9.79424 23.5547 9.36679Z" fill="white"/>
</svg>
