<svg width="241" height="114" viewBox="0 0 241 114" fill="none" xmlns="http://www.w3.org/2000/svg">
<path fill-rule="evenodd" clip-rule="evenodd" d="M28.5955 0.915183C26.965 2.18217 23.9323 5.4046 22.8388 7.03204C21.7601 8.63735 20.6492 10.5174 19.9868 11.858C19.5763 12.6886 18.2417 15.2199 16.7427 18.0102C15.9072 19.5656 14.6579 21.4567 13.8308 22.4182C11.7604 24.8247 9.63802 28.6087 8.32629 32.232C6.95086 36.0311 5.61732 41.9866 5.25364 45.9548C5.14887 47.0983 4.99935 48.2139 4.92149 48.434L4.77993 48.8339L4.34747 48.4167C3.65307 47.7469 3.41152 47.7319 2.98112 48.3315C2.39579 49.1474 1.9248 50.2145 1.92257 50.7303C1.92145 50.9856 1.73929 51.7872 1.51781 52.5117C1.20158 53.5462 1.0812 54.4214 0.95732 56.587C0.739175 60.3976 0.564024 62.1088 0.227094 63.7185C-0.11127 65.3354 -0.241688 65.1555 1.84502 65.951C3.18192 66.4607 3.40881 66.4966 5.22625 66.4873L7.17458 66.4775L7.35324 67.0695C7.62695 67.9769 8.52086 69.6252 9.90441 71.7743C10.595 72.847 11.1596 73.7827 11.1591 73.8535C11.1587 73.9244 10.5173 73.9959 9.73403 74.0122C5.74627 74.0957 3.06026 76.1586 3.91054 78.4847C4.61959 80.424 7.96148 82.8423 11.0803 83.6729C12.479 84.0453 12.5346 84.0844 12.66 84.7825C12.8072 85.6022 13.4751 86.1045 15.0087 86.549C16.824 87.0753 19.1231 87.0839 20.46 86.5699C20.9772 86.371 21.5729 86.2082 21.7834 86.2082C22.028 86.2082 22.8744 86.7947 24.1239 87.8299C28.1448 91.1613 28.8067 91.6735 30.984 93.1377C33.785 95.0215 37.056 96.9367 39.7814 98.2885C40.9418 98.864 41.8912 99.4134 41.8912 99.5092C41.8912 99.6052 41.3673 100.75 40.727 102.053C39.4207 104.711 38.3445 107.898 38.0646 109.936C37.9061 111.09 37.9165 111.428 38.1332 112.207C38.3491 112.982 38.4644 113.15 38.8895 113.305C41.5404 114.27 48.9529 110.753 54.8429 105.735C56.3305 104.468 56.2559 104.477 59.5301 105.163C60.8194 105.433 62.7343 105.771 63.7852 105.915C64.8361 106.058 66.7707 106.398 68.0844 106.67C71.8454 107.447 75.3531 107.91 79.8673 108.224C82.2274 108.388 86.9853 107.442 91.491 105.912C93.9926 105.062 94.4968 104.718 94.903 103.584C95.2731 102.551 95.3067 102.045 95.0654 101.137C94.8261 100.237 94.279 99.9913 92.6431 100.05C91.3815 100.095 91.2731 100.069 89.7843 99.3487C88.9332 98.937 88.2345 98.5521 88.2318 98.4933C88.2237 98.3176 88.6654 98.1924 90.1968 97.9355C92.9221 97.4786 94.9347 96.9726 95.439 96.6176C95.7605 96.3913 96.0453 95.9738 96.227 95.4626C96.6915 94.1559 96.426 93.4805 94.2241 90.3666C91.0052 85.8146 88.7952 83.1216 84.5335 78.559C79.902 73.6004 75.6791 69.9084 72.4499 67.9943C71.2151 67.2624 69.4697 66.1575 68.571 65.5387C64.7561 62.9121 64.0446 61.694 61.552 53.5231C60.1656 48.9782 59.5377 47.3423 57.7701 43.6676C56.3514 40.7183 56.0798 40.3485 55.6565 40.7897C54.9644 41.5109 39.7696 46.6435 35.4424 47.6178C34.1287 47.9135 32.9979 48.2093 32.9293 48.2748C32.7799 48.4179 33.7243 49.342 36.0822 51.3607C38.0904 53.0799 38.041 53.2767 35.7833 52.5535C35.0703 52.3251 33.663 51.9014 32.6559 51.6117C27.1062 50.016 24.5017 48.9634 23.2469 47.8097C21.8783 46.5512 21.2404 44.569 21.5367 42.4953C21.6918 41.4101 22.5876 39.4274 23.326 38.535L23.8277 37.9287L24.7786 38.4305C25.3016 38.7066 27.0192 39.7384 28.5955 40.7236C33.8089 43.9815 34.5666 44.1335 34.5666 41.9213C34.5666 40.9078 33.8638 37.0245 33.3097 34.9765L33.0172 33.8954L31.8777 33.9062C30.5177 33.919 30.4763 33.7117 31.7503 33.2681C32.7772 32.9105 32.7874 32.8799 32.4248 31.234C32.1441 29.96 31.8991 29.1376 31.7067 28.8236C31.5736 28.6064 31.4967 28.6115 31.0856 28.8652C30.5142 29.2178 30.4267 29.2238 30.4267 28.9111C30.4267 28.7772 30.5687 28.5881 30.7421 28.4911C31.4468 28.097 31.5102 27.6192 31.1166 25.6664C30.9165 24.6735 30.6435 22.9399 30.5101 21.8139C30.1295 18.6036 30.1703 16.7143 30.8223 7.32312C30.9222 5.88465 30.8695 5.82377 30.0076 6.38033C29.3224 6.82262 29.3214 6.54267 30.0057 5.74343C30.2994 5.40011 30.6123 4.96946 30.7009 4.78649C31.1596 3.83771 31.0241 0.976394 30.4913 0.361448C30.0822 -0.110947 29.816 -0.0332668 28.5955 0.915183ZM27.0999 5.16075C27.0155 5.32077 26.6217 5.93837 26.2248 6.53303C23.4626 10.6715 20.0352 17.1486 19.1553 19.8928C18.9848 20.4249 18.7762 20.9324 18.6921 21.0203C18.5093 21.2112 17.6883 20.5929 17.6883 20.2644C17.6883 19.8687 18.7461 17.6155 19.8408 15.6794C21.6229 12.5276 25.4573 6.77139 26.7372 5.32709C27.2048 4.7993 27.3177 4.74757 27.0999 5.16075ZM25.3313 15.3484C25.3313 15.4397 25.0906 15.7951 24.7963 16.1385C23.8866 17.1998 22.7958 18.9881 21.8286 21.0035C20.7049 23.3453 20.514 23.5564 20.1626 22.8466C19.9257 22.3679 19.9311 22.2936 20.2518 21.6289C20.8415 20.4068 22.8929 17.5947 24.4385 15.8894C25.0756 15.1865 25.3313 15.0315 25.3313 15.3484ZM26.2867 20.3043C26.2867 20.3767 25.96 20.7698 25.5606 21.1776C25.1611 21.5855 24.336 22.6828 23.7266 23.6161C23.1174 24.5494 22.5369 25.366 22.4367 25.4307C22.3354 25.496 22.1256 25.3821 21.9647 25.1747C21.7069 24.842 21.6998 24.7525 21.8995 24.3581C22.26 23.6455 25.7921 20.1726 26.1561 20.1726C26.2279 20.1726 26.2867 20.2318 26.2867 20.3043ZM25.5358 26.8232C24.8541 27.4621 24.204 28.0984 24.0911 28.2371C23.8003 28.5944 23.4604 28.5498 23.3354 28.1381C23.1984 27.6879 23.416 27.4658 24.967 26.4718C26.7727 25.3147 26.9973 25.4535 25.5358 26.8232ZM14.7426 26.8261C14.7426 27.0857 14.6397 27.258 14.4635 27.2935C14.1482 27.3568 13.9433 26.9586 14.0882 26.5643C14.2401 26.1509 14.7426 26.3518 14.7426 26.8261ZM21.6512 28.3841C22.7717 30.4555 23.3819 33.4078 23.108 35.4321C23.0112 36.1479 22.7843 36.7489 22.2996 37.5732C21.9289 38.2035 21.4957 38.9437 21.3367 39.2181C21.1778 39.4926 20.8525 40.2411 20.6138 40.8815C20.2457 41.8689 20.1793 42.2987 20.1768 43.7092C20.1741 45.1657 20.2269 45.4937 20.6014 46.3456C20.8366 46.8807 21.3254 47.6883 21.6877 48.1404C22.0499 48.5923 22.3052 49.005 22.255 49.0576C22.0794 49.2411 19.9343 48.443 19.4435 48.0117C18.5254 47.2046 17.953 45.5421 17.2917 41.7614C17.0723 40.5072 16.7777 39.1225 16.6373 38.6842C15.976 36.6221 14.2977 35.5604 13.1673 36.4894C12.3965 37.1226 12.0733 38.0518 11.9876 39.8793C11.9269 41.1787 11.8766 41.4494 11.7561 41.1268C11.5276 40.5152 11.5378 37.9786 11.7717 37.272C11.8838 36.9335 12.233 36.4204 12.5476 36.1318C13.1091 35.6169 13.1454 35.6081 14.4873 35.666L15.8551 35.7251L16.4981 33.8122C17.396 31.1412 18.4673 29.3095 19.9833 27.8534C20.8501 27.0207 20.9269 27.0451 21.6512 28.3841ZM14.1958 28.9943C14.5267 29.1794 14.6111 29.7313 14.3354 29.9091C14.0834 30.0719 13.4369 29.8576 13.3339 29.5769C13.284 29.4415 13.353 29.2163 13.4869 29.0764C13.7756 28.7747 13.7984 28.7722 14.1958 28.9943ZM12.2231 31.2508C12.3358 31.5575 11.9507 31.877 11.7373 31.6541C11.5634 31.4725 11.723 30.9845 11.9561 30.9845C12.0492 30.9845 12.1693 31.1042 12.2231 31.2508ZM24.8947 35.9608C26.0907 36.3906 29.4713 38.18 30.6591 39.0119C31.8292 39.8312 31.7715 39.7815 31.6717 39.8858C31.6266 39.9329 30.7728 39.5639 29.7741 39.0658C28.0943 38.2279 24.4024 36.9726 23.618 36.9726C23.1516 36.9726 23.0953 36.8074 23.3475 36.1808C23.6007 35.5519 23.7129 35.5359 24.8947 35.9608ZM9.25873 38.7239C9.73021 42.2867 11.4711 44.994 14.6972 47.182C17.8258 49.3038 20.7734 50.3996 27.9586 52.1125C34.1722 53.5938 40.2028 55.3022 42.2096 56.1495C42.5161 56.2789 42.9026 56.4351 43.0683 56.4965C43.2341 56.5579 43.3314 56.6483 43.2844 56.6974C43.2373 56.7465 42.2419 56.5238 41.0721 56.2024C36.8399 55.0397 35.0386 54.5695 30.1082 53.3408C20.6985 50.9957 19.801 50.7353 16.7731 49.4696C11.3196 47.1901 9.1261 44.1874 8.87929 38.6644C8.79697 36.8184 9.01113 36.852 9.25873 38.7239ZM16.1839 38.9886C16.2903 39.3093 16.4619 40.5027 16.5654 41.6405C16.6689 42.7782 16.9302 44.4426 17.146 45.339C17.5614 47.0635 17.5444 47.3947 17.0544 47.1208C16.5046 46.8134 16.1666 44.9875 15.9454 41.131C15.8745 39.8959 15.7605 38.7442 15.6921 38.5717C15.6026 38.346 15.6271 38.2787 15.7792 38.3316C15.8954 38.372 16.0776 38.6677 16.1839 38.9886ZM7.80051 43.2518C8.04159 46.9032 8.17724 47.7457 8.87881 49.9468C9.57146 52.1197 10.8448 54.7022 12.2411 56.7656C13.6947 58.914 16.8587 62.2153 19.2013 64.0275C22.3407 66.456 29.4012 70.9999 35.4424 74.4794C36.6684 75.1855 37.7397 75.8304 37.8229 75.9124C38.1235 76.2088 37.5538 76.0557 36.2661 75.4936C35.5503 75.1812 34.069 74.5337 32.9743 74.0545C29.1026 72.3598 24.1159 69.6276 21.1914 67.5988C19.6588 66.5356 18.3332 65.6385 18.2456 65.6052C18.1581 65.572 19.1278 66.3609 20.4003 67.3584C26.583 72.2045 33.6045 76.1406 43.4038 80.2541C47.9734 82.1723 57.1928 85.3765 58.1424 85.3765C58.2246 85.3765 58.2918 85.1073 58.2918 84.7783C58.2918 83.8688 58.729 82.4905 59.261 81.7236C60.0981 80.5165 61.6322 79.7245 63.6259 79.4704C64.3578 79.3771 64.3977 79.3894 64.1202 79.6227C63.9541 79.7623 63.3591 80.0361 62.798 80.231C61.8555 80.5587 60.5716 81.4097 60.0739 82.0368C59.9592 82.1812 59.7091 82.6361 59.5182 83.0478C59.1943 83.7457 59.167 84.0832 59.1158 88.0472C59.0616 92.2375 59.3269 96.7911 59.7497 98.9291C60.0503 100.449 60.8853 102 62.0567 103.216L63.1387 104.339H62.5604C61.6392 104.339 59.649 103.891 58.976 103.532C58.2101 103.124 57.1267 102.041 56.7544 101.312C56.282 100.386 56.3667 98.9522 56.9687 97.6834C57.2482 97.0942 57.4568 96.5912 57.4321 96.5656C57.4074 96.5398 57.0872 96.7457 56.7206 97.0232L56.054 97.5275L55.5408 97.0142C54.5043 95.9776 52.4237 95.1278 50.4895 94.9511C47.8395 94.7091 45.6924 95.444 43.9623 97.1854C43.4163 97.7348 42.8663 98.1844 42.74 98.1844C41.7708 98.1844 36.1505 94.9503 31.2228 91.557C28.2067 89.4802 26.3053 87.9756 23.4566 85.4119L21.1251 83.3137L18.4912 83.3523C16.1971 83.3859 15.6134 83.337 13.9683 82.9737C11.2527 82.3741 9.01974 81.4917 7.29862 80.3383C6.23974 79.6286 6.35678 79.5118 7.53747 80.1C9.11066 80.8836 12.119 81.8526 13.5672 82.0424C15.329 82.2731 20.2594 82.2686 19.8782 82.0366C19.725 81.9435 18.5657 81.764 17.3017 81.6377C14.3219 81.3402 11.0921 80.3885 9.253 79.2661C8.18345 78.6136 8.73359 78.6234 10.4303 79.2874C11.2591 79.6118 12.64 80.0234 13.4992 80.2024C15.2983 80.5773 19.4398 80.8505 19.4398 80.5943C19.4398 80.5035 18.8486 80.3762 18.1262 80.3115C16.4388 80.16 14.5276 79.7832 13.7562 79.4499C10.9676 78.2451 10.4155 77.6681 12.8638 78.5173C14.4552 79.0692 14.7595 79.1189 16.9471 79.1863C19.1856 79.2551 19.3078 79.2426 19.2537 78.9497C19.1682 78.486 16.5231 76.3409 14.9706 75.4763C13.6826 74.7591 13.5388 74.6215 12.4022 73.0188C8.54425 67.5788 7.00055 63.28 6.37 56.2207C6.08896 53.0735 6.34929 46.9842 6.94418 42.7944C7.42967 39.375 7.54877 39.4385 7.80051 43.2518ZM56.5936 47.7928C57.3235 49.2978 58.6543 52.4751 59.5511 54.8537C60.4477 57.2324 61.4754 59.8352 61.8348 60.6378C62.2461 61.5566 62.4322 62.1554 62.3371 62.2547C62.2422 62.3539 61.8082 62.214 61.1652 61.8766C59.9705 61.2499 60.274 61.9417 58.1211 54.9369C56.5613 49.8622 55.8172 47.5606 55.2828 46.1565C54.9214 45.2072 54.8386 44.6096 55.1072 44.8902C55.1948 44.9817 55.8637 46.2879 56.5936 47.7928ZM51.7358 48.0115C54.8918 53.6042 57.6006 59.5123 57.2671 60.0757C57.1491 60.2751 55.939 59.8079 55.4834 59.3869C55.2962 59.2141 55.0212 58.6098 54.8722 58.0443C54.1889 55.4499 53.192 52.7231 51.0753 47.6597C50.7597 46.9049 50.5604 46.2874 50.6322 46.2874C50.7042 46.2874 51.2006 47.0632 51.7358 48.0115ZM46.4239 49.5794C48.4982 52.5059 49.5797 54.1665 50.4728 55.7965C51.0075 56.7724 51.4449 57.6244 51.4449 57.6896C51.4449 57.9147 50.1182 57.6221 49.7158 57.3082C49.4571 57.1064 48.9926 56.2232 48.4194 54.8426C47.928 53.6594 47.041 51.7371 46.4481 50.5706C45.8552 49.4041 45.4294 48.4528 45.5017 48.4566C45.574 48.4604 45.9889 48.9656 46.4239 49.5794ZM43.3567 51.7765C45.2625 53.9211 46.668 55.7077 46.668 55.9853C46.668 56.231 45.3675 55.9652 44.9165 55.6274C44.6976 55.4634 44.1777 54.7357 43.7613 54.0103C43.3448 53.2849 42.6104 52.0467 42.1292 51.2587C40.7041 48.9252 40.8944 49.0055 43.3567 51.7765ZM14.79 50.211C14.8162 50.4019 14.7276 50.6534 14.5931 50.77C14.1077 51.1908 13.4721 50.5268 13.8749 50.0198C14.1573 49.6644 14.7318 49.7843 14.79 50.211ZM39.343 51.6187C40.1295 52.3552 40.9528 53.2044 41.1727 53.5058C41.5776 54.0602 41.6848 54.4379 41.4372 54.4379C41.0861 54.4379 40.181 54.0236 39.843 53.7079C39.5037 53.3913 37.592 50.5456 37.592 50.3572C37.592 50.0857 38.087 50.4423 39.343 51.6187ZM4.39778 50.8532C4.90382 51.0741 5.17658 51.6102 4.7828 51.6102C4.52103 51.6102 3.75418 51.1602 3.52569 50.8726C3.35197 50.6541 3.36104 50.6122 3.58221 50.6122C3.72711 50.6122 4.09413 50.7206 4.39778 50.8532ZM13.3605 52.9123C13.3934 53.1471 13.327 53.2736 13.1708 53.2736C12.8611 53.2736 12.6982 52.9949 12.8178 52.6696C12.9474 52.3166 13.2987 52.4736 13.3605 52.9123ZM17.2106 53.0062C17.2106 53.3882 16.8672 53.6911 16.6689 53.4838C16.6166 53.4292 16.5737 53.2098 16.5737 52.9963C16.5737 52.7192 16.6646 52.6082 16.8922 52.6082C17.1219 52.6082 17.2106 52.7192 17.2106 53.0062ZM17.4998 57.0562C17.4433 57.5692 16.9493 57.7809 16.7943 57.3589C16.6802 57.0487 16.9912 56.6003 17.3203 56.6003C17.477 56.6003 17.5342 56.7453 17.4998 57.0562ZM44.2458 58.692C53.1882 60.9959 57.7161 62.4237 62.2464 64.368C70.6095 67.9571 76.0807 71.7203 82.2537 78.1294C85.0243 81.0058 88.7045 85.3071 88.7045 85.6686C88.7045 85.7941 86.7567 83.8257 85.0617 81.9872C84.0816 80.9243 81.588 78.6211 78.3546 75.7925C74.6099 72.5165 69.3608 69.0071 66.2763 67.7175C63.249 66.4517 48.1642 60.8731 42.0504 58.7583C39.5768 57.9027 38.4859 57.4586 38.832 57.4481C39.1201 57.4391 41.5563 57.999 44.2458 58.692ZM11.2615 59.5112C11.1246 59.8839 11.3239 60.283 11.6179 60.2249C11.7652 60.1956 11.8981 59.9774 11.9268 59.7176C11.9666 59.3578 11.9115 59.2617 11.6652 59.2617C11.4937 59.2617 11.312 59.3739 11.2615 59.5112ZM33.4202 60.1266C33.7022 60.4212 33.6531 60.7236 33.2902 60.9265C33.02 61.0776 32.9474 61.0456 32.8309 60.7244C32.7465 60.4914 32.7551 60.2618 32.853 60.1349C33.0535 59.8751 33.1777 59.8733 33.4202 60.1266ZM5.23039 61.8568C5.69359 61.9536 6.19819 62.6488 5.93068 62.8216C5.86365 62.8648 5.28008 62.7552 4.63376 62.5779C3.98761 62.4008 3.29703 62.2557 3.09927 62.2557C2.90135 62.2557 2.69753 62.1847 2.6461 62.0979C2.59276 62.0074 2.94609 61.9142 3.47266 61.8798C3.9787 61.8467 4.47326 61.8054 4.57182 61.7881C4.67039 61.7709 4.96671 61.8018 5.23039 61.8568ZM31.5058 62.5147C31.7073 62.6621 31.8597 62.9485 31.8597 63.18C31.8597 63.6546 31.3472 64.2518 30.9399 64.2518C30.4329 64.2518 29.949 63.7656 29.949 63.2562C29.949 62.3583 30.7625 61.9708 31.5058 62.5147ZM42.9771 62.6283C42.9195 63.05 42.3948 63.2339 42.198 62.9014C42.03 62.6175 42.3212 62.2557 42.7179 62.2557C42.948 62.2557 43.0148 62.3519 42.9771 62.6283ZM11.1069 62.6993C10.8749 62.9415 11.0227 63.1069 11.4263 63.0568C11.9747 62.9891 12.1214 62.5884 11.5978 62.5884C11.3862 62.5884 11.1652 62.6383 11.1069 62.6993ZM33.6839 63.1446C34.0291 63.4083 33.9256 64.1539 33.5214 64.316C32.8903 64.569 32.36 63.6293 32.8469 63.1207C33.0947 62.8618 33.3222 62.8685 33.6839 63.1446ZM4.61147 64.2374C6.39198 64.543 6.75008 64.7202 6.65756 65.2498C6.59005 65.6355 5.57529 65.4707 3.79558 64.7847C2.33703 64.2225 1.88148 63.9143 2.52175 63.9227C2.67508 63.9249 3.61533 64.0665 4.61147 64.2374ZM14.4488 65.2213C14.1405 65.5771 14.1031 66.2618 14.3764 66.5472C14.4815 66.657 14.7655 66.7468 15.0077 66.7468C15.7725 66.7468 16.0643 65.6448 15.4236 65.1761C14.9652 64.8406 14.7708 64.8496 14.4488 65.2213ZM63.5446 69.8219C63.8498 70.2061 63.6173 70.5725 63.0686 70.5725C62.5609 70.5725 62.3258 70.269 62.4894 69.824C62.6074 69.5027 63.29 69.5013 63.5446 69.8219ZM67.124 71.2013C67.2473 71.5368 66.7661 72.0696 66.34 72.0696C65.895 72.0696 65.6163 71.7665 65.6163 71.2825C65.6163 70.5644 66.8655 70.4972 67.124 71.2013ZM51.8339 72.3918C52.1743 72.7846 52.0388 73.0676 51.5102 73.0676C51.0917 73.0676 50.8734 72.7311 51.0249 72.3191C51.1511 71.9753 51.5003 72.0067 51.8339 72.3918ZM64.1769 73.1428C64.5038 73.5541 64.3116 73.9824 63.8003 73.9824C63.2295 73.9824 62.9159 73.5433 63.2167 73.1647C63.4783 72.8355 63.9247 72.8254 64.1769 73.1428ZM49.6966 74.9036C50.0647 75.622 49.5305 76.2044 48.8157 75.8642C48.356 75.6453 48.31 75.2995 48.6831 74.8688C49.031 74.4673 49.481 74.4828 49.6966 74.9036ZM26.2184 75.6576C25.9297 75.9593 25.8966 76.4427 26.133 76.9043C26.3728 77.3724 27.3051 77.3424 27.6311 76.8562C27.9588 76.3677 27.9438 76.1293 27.5605 75.729C27.1789 75.3303 26.5631 75.2977 26.2184 75.6576ZM28.892 76.8102C28.7511 77.1936 28.9606 77.5896 29.2718 77.5279C29.4404 77.4946 29.5708 77.292 29.6012 77.0166C29.642 76.6478 29.5878 76.5606 29.3176 76.5606C29.1339 76.5606 28.9423 76.6729 28.892 76.8102ZM53.5087 78.212C53.7386 78.6608 53.5451 79.084 53.138 79.0229C52.7141 78.9594 52.6227 78.5143 52.9609 78.161C53.2866 77.821 53.3095 77.8231 53.5087 78.212ZM27.4589 78.4735C27.3182 78.8564 27.5158 79.222 27.8632 79.222C28.2497 79.222 28.4857 78.578 28.1747 78.3721C27.847 78.1553 27.5609 78.1957 27.4589 78.4735ZM78.0075 78.6635C78.3588 79.3193 77.6539 79.9982 76.9614 79.6706C76.5705 79.4858 76.4823 78.9158 76.7942 78.59C77.0724 78.2994 77.8371 78.3458 78.0075 78.6635ZM75.3099 79.2061C75.5946 79.3944 75.3989 79.721 75.0014 79.721C74.7022 79.721 74.582 79.3927 74.7986 79.1666C74.9373 79.0216 75.0435 79.0297 75.3099 79.2061ZM76.412 80.9187C76.8482 81.3743 76.4474 81.9704 75.8468 81.7593C75.4833 81.6316 75.7277 80.7191 76.1254 80.7191C76.178 80.7191 76.307 80.8089 76.412 80.9187ZM64.8689 82.0082C64.5436 82.5343 63.6949 83.6008 62.983 84.3785C62.2711 85.1561 61.4795 86.1852 61.2241 86.6654C60.9687 87.1456 60.6882 87.5139 60.6006 87.4839C60.3665 87.4038 60.318 85.6498 60.5215 84.6255C60.7288 83.5822 61.4176 82.514 62.1499 82.1C63.0564 81.5875 64.4035 81.0908 64.9412 81.071L65.4603 81.0517L64.8689 82.0082ZM38.2687 82.6704C38.1593 82.7101 38.0697 82.9237 38.0697 83.1447C38.0697 83.4626 38.1529 83.5468 38.4677 83.5468C38.7814 83.5468 38.8658 83.4624 38.8658 83.1487C38.8658 82.7395 38.6196 82.5424 38.2687 82.6704ZM40.8791 83.7961C40.3638 84.3344 40.7508 85.3765 41.4659 85.3765C41.7819 85.3765 42.3688 84.8026 42.3688 84.4934C42.3688 83.8151 41.3275 83.3277 40.8791 83.7961ZM66.5717 83.9723C66.5717 84.2065 66.4932 84.9269 66.397 85.5736C66.2682 86.4415 66.2706 87.0934 66.4066 88.065C66.5636 89.1862 66.5507 89.5688 66.3196 90.654C65.99 92.2014 66.0932 95.1659 66.5518 97.3251C66.7733 98.3683 66.7989 98.7305 66.6553 98.788C66.5503 98.8301 65.794 98.7117 64.9746 98.5247C63.4744 98.1827 61.5039 97.1958 60.8772 96.4728C60.5275 96.0692 60.4159 93.9027 60.6601 92.2595C61.0686 89.5118 61.961 87.6834 63.927 85.5664C65.7491 83.6045 66.5717 83.1086 66.5717 83.9723ZM80.5042 84.2735C82.2658 84.6715 82.9073 85.2627 83.9582 87.4557C84.7198 89.045 85.5741 90.5329 85.725 90.5329C85.8015 90.5329 85.975 90.2378 86.1107 89.877C86.2462 89.5164 86.4627 89.1791 86.5916 89.1274C87.0503 88.9436 87.9929 89.7263 88.9708 91.1029C89.9604 92.4963 90.0432 92.5617 91.9687 93.4692L92.6057 93.7695L91.6503 93.8275C91.1248 93.8595 89.5641 93.7577 88.1821 93.6015C84.9439 93.2355 82.161 93.3385 79.6285 93.9177C75.6444 94.8287 74.19 95.7495 73.4881 97.8048C73.1971 98.6571 73.2026 100.802 73.4982 101.677C73.6295 102.066 73.737 102.52 73.737 102.686C73.737 102.976 73.6996 102.976 72.7151 102.691C70.8987 102.165 69.3937 100.897 68.5697 99.1982C67.7602 97.5293 67.4564 95.9766 67.46 93.527C67.4629 91.5698 67.5113 91.1532 67.8371 90.2834C68.5189 88.4632 69.5526 87.2644 71.4336 86.1128C73.963 84.5644 78.0895 83.7276 80.5042 84.2735ZM77.877 84.7055C77.3953 84.8816 76.6788 85.1165 76.2847 85.2271C75.6256 85.4122 75.6001 85.4382 75.9662 85.5521C76.1851 85.6203 76.5929 85.6834 76.8724 85.6925C77.5633 85.7151 77.6295 85.9096 77.2275 86.7329C76.9146 87.3735 76.9014 87.5144 77.0763 88.3318C77.1821 88.8246 77.2332 89.2649 77.19 89.3098C77.1469 89.3549 76.8181 89.2353 76.4593 89.044C76.1006 88.8529 75.807 88.7701 75.807 88.8599C75.807 89.0648 77.4564 90.2292 78.173 90.5301C78.9591 90.8601 80.4108 90.8143 81.1529 90.4359C81.729 90.142 81.7741 90.0698 81.7282 89.5151C81.6458 88.5209 82.0706 88.5641 82.6344 89.6076C83.0759 90.4251 83.8843 91.2989 84.0444 91.1319C84.0818 91.0928 84.006 90.8859 83.8759 90.6721C83.746 90.4584 83.4484 89.4975 83.2146 88.5369C82.6594 86.2547 82.3077 85.6165 81.269 85.0077C80.1867 84.3733 79.0592 84.2728 77.877 84.7055ZM65.3243 84.9403C64.4902 85.5831 63.0037 87.4482 62.5445 88.4277C61.7997 90.0164 61.1579 92.2536 61.1579 93.2605C61.1579 93.773 61.2208 94.1923 61.2977 94.1923C61.3748 94.1923 61.5179 93.6289 61.6158 92.9403C61.7139 92.2517 62.0077 91.1103 62.2687 90.4037C62.798 88.9713 64.2783 86.5107 65.283 85.3936C66.04 84.5518 66.0559 84.3763 65.3243 84.9403ZM38.4001 86.2762C38.0999 86.6541 38.3384 87.2062 38.802 87.2062C39.2505 87.2062 39.4712 86.7897 39.2324 86.3935C39.0121 86.028 38.6391 85.9754 38.4001 86.2762ZM72.8421 87.2814C72.7106 87.6395 72.9096 87.8715 73.3483 87.8715C73.6568 87.8715 73.737 87.7857 73.737 87.4557C73.737 87.1217 73.6577 87.0398 73.334 87.0398C73.1122 87.0398 72.8909 87.1485 72.8421 87.2814ZM78.4089 88.1879C78.519 88.9229 78.7094 89.0302 79.9071 89.0334C80.6738 89.0352 80.9023 89.0918 80.9023 89.2796C80.9023 89.7774 79.7043 90.0402 78.7065 89.7609C78.2379 89.6299 77.877 88.8956 77.877 88.0738C77.877 86.9474 78.2347 87.024 78.4089 88.1879ZM80.8768 87.4079C81.181 87.4063 81.2327 87.4716 81.1577 87.7634C81.1072 87.9602 81.0649 88.2333 81.0635 88.3705C81.0596 88.7706 79.9481 88.7636 79.4857 88.3607L79.104 88.0282L79.4821 87.6077C79.7511 87.3086 79.9533 87.2193 80.1823 87.2987C80.3593 87.36 80.6719 87.4091 80.8768 87.4079ZM50.5467 88.1222C50.4905 88.2752 50.5558 88.5109 50.6943 88.6556C51.0325 89.0089 51.4811 88.8065 51.4162 88.3296C51.3535 87.8677 50.6976 87.7113 50.5467 88.1222ZM73.106 89.0244C72.9813 89.2679 73.0036 89.4103 73.1985 89.6139C73.5028 89.9318 73.7958 89.8696 73.8696 89.4715C73.9246 89.1754 73.6388 88.7032 73.4047 88.7032C73.3308 88.7032 73.1964 88.8477 73.106 89.0244ZM52.9356 89.119C52.7958 89.4994 52.9915 89.8676 53.3337 89.8676C53.6357 89.8676 53.8333 89.5663 53.8333 89.1054C53.8333 88.7862 53.0534 88.798 52.9356 89.119ZM70.2677 89.319C68.7729 91.512 70.3594 94.6983 72.9409 94.6878C73.82 94.6843 73.7922 94.3942 72.8942 94.1995C71.7277 93.9465 71.0319 93.4431 70.5922 92.5339C70.1674 91.6553 70.1317 90.6402 70.4927 89.6977C70.8091 88.8717 70.6991 88.6862 70.2677 89.319ZM71.8285 89.3672C71.5645 89.5375 71.7369 90.0339 72.0602 90.0339C72.1942 90.0339 72.3039 90.0026 72.3039 89.9644C72.3039 89.9261 72.3439 89.786 72.3926 89.6531C72.4982 89.366 72.1238 89.1764 71.8285 89.3672ZM86.7463 90.1586C86.8022 90.3187 86.9791 90.6282 87.1393 90.8464C87.2997 91.0647 87.4307 91.4201 87.4307 91.6365C87.4307 92.1262 87.8074 92.1535 88.1206 91.6864C88.4439 91.2044 88.2797 90.7488 87.6118 90.2746C86.9306 89.791 86.6024 89.7471 86.7463 90.1586ZM49.9542 91.4477C49.8066 91.8498 50.0176 92.1963 50.4099 92.1963C50.6101 92.1963 50.8152 92.084 50.8656 91.9468C51.0132 91.5447 50.8023 91.1982 50.4099 91.1982C50.2098 91.1982 50.0047 91.3105 49.9542 91.4477ZM54.0988 91.9745C54.0403 92.0354 53.9926 92.2225 53.9926 92.3904C53.9926 92.6005 54.1102 92.6953 54.3712 92.6953C54.7953 92.6953 55.1892 92.3031 55.0319 92.0372C54.918 91.8446 54.265 91.8007 54.0988 91.9745ZM85.4403 94.7793C86.3161 94.8315 87.6775 94.9471 88.4657 95.0361C90.2553 95.2382 92.6443 95.2723 93.8204 95.1125C94.9094 94.9644 95.2231 95.2389 94.3838 95.6053C93.8679 95.8304 89.3649 96.6491 85.2483 97.266C81.4497 97.8352 79.946 98.52 77.0012 101.021C75.6035 102.208 75.2565 102.405 75.0482 102.131C74.6979 101.67 74.5026 100.591 74.5588 99.4286C74.6812 96.8949 75.8455 96.0576 80.5839 95.0947C80.8904 95.0325 81.5352 94.8843 82.0169 94.7657C82.4986 94.6469 83.1076 94.58 83.3704 94.617C83.6331 94.654 84.5646 94.7271 85.4403 94.7793ZM80.6635 95.5328C79.9629 95.695 79.1594 95.8339 78.878 95.8417C78.0715 95.8638 76.738 96.4877 76.0856 97.1483C75.7573 97.4808 75.4885 97.8272 75.4885 97.9181C75.4885 98.0089 75.7213 97.8497 76.006 97.5641C76.6608 96.9072 77.2512 96.6717 80.1062 95.9284C81.376 95.5977 82.4449 95.2964 82.4814 95.2588C82.6003 95.1359 81.9613 95.2322 80.6635 95.5328ZM55.6549 98.3091C55.5871 98.4691 55.4898 99.2887 55.4389 100.13L55.346 101.66L54.3906 102.436C52.3008 104.132 45.4856 107.156 43.165 107.417L42.2892 107.515L42.8465 107.247C43.1531 107.1 44.1778 106.713 45.124 106.388C47.2835 105.644 50.5317 103.974 52.042 102.829C53.1052 102.024 53.4873 101.593 52.9974 101.753C52.888 101.788 52.2251 102.01 51.5245 102.246C49.298 102.995 46.823 103.507 44.9961 103.596C43.1979 103.684 43.0612 103.494 44.7573 103.264C45.744 103.131 47.7895 102.645 49.4545 102.149C50.6488 101.793 54.311 100.046 54.311 99.8313C54.311 99.7604 54.0782 99.7361 53.7935 99.7775C53.5088 99.819 52.5237 99.9675 51.6041 100.108C46.8395 100.833 44.6243 100.961 44.3672 100.527C44.3237 100.453 45.1563 100.302 46.2173 100.191C49.2304 99.876 52.1516 99.2162 55.1072 98.1834C55.7088 97.9731 55.7893 97.9918 55.6549 98.3091ZM61.8825 98.6752C62.2122 99.0195 64.203 99.6681 65.4709 99.8441C67.0862 100.068 67.3678 100.148 67.3678 100.383C67.3678 100.655 64.1852 100.411 62.6978 100.024C61.2805 99.6559 60.9987 99.4715 60.9987 98.9126C60.9987 98.6107 61.0854 98.517 61.3649 98.517C61.5663 98.517 61.7993 98.5882 61.8825 98.6752ZM86.1726 98.9588C86.5352 99.1104 87.5565 99.6718 88.4423 100.206C89.3281 100.741 90.103 101.178 90.1645 101.178C90.2258 101.178 90.4723 101.256 90.7121 101.352C91.1016 101.506 91.1224 101.552 90.907 101.777C90.4831 102.22 89.069 102.256 87.9304 101.853C86.6553 101.402 83.1315 99.5663 83.1315 99.3527C83.1315 99.0526 84.0063 98.6967 84.7604 98.69C85.1746 98.6864 85.8101 98.8073 86.1726 98.9588ZM64.8202 101.684C65.5646 101.769 66.7707 101.839 67.5005 101.841C68.4633 101.843 68.81 101.899 68.7635 102.044C68.6484 102.405 67.642 102.541 65.509 102.483C63.6892 102.434 63.3514 102.38 62.9707 102.083C62.2937 101.555 62.2755 101.269 62.9279 101.412C63.2242 101.477 64.0758 101.599 64.8202 101.684ZM93.8773 101.84C94.0535 102.138 93.6381 103.319 93.2427 103.644C93.0281 103.82 92.2237 104.165 91.4552 104.41C90.6868 104.655 89.1717 105.154 88.0883 105.52C86.7436 105.975 85.9101 106.168 85.461 106.13C84.7329 106.068 84.8426 105.986 86.1569 105.605C86.6385 105.466 87.1707 105.246 87.3395 105.117C87.6039 104.915 87.4985 104.914 86.5782 105.112C85.9906 105.238 84.8951 105.527 84.1437 105.755C81.2954 106.617 77.7633 106.016 76.2786 104.415L75.753 103.849L76.342 103.269C77.2112 102.412 77.6757 102.386 79.7151 103.073C82.8586 104.133 84.11 104.376 86.332 104.354C88.1001 104.337 88.5018 104.277 89.7148 103.848C91.3014 103.288 92.5155 102.636 93.0233 102.071C93.397 101.656 93.7171 101.569 93.8773 101.84ZM55.8591 102.052C56.2799 102.62 56.2259 102.876 55.5467 103.535C52.6702 106.324 47.5304 109.769 44.1376 111.183C42.709 111.778 42.0658 111.73 43.3408 111.124C44.6573 110.498 47.5846 108.784 48.9366 107.849C50.6876 106.638 51.9742 105.498 53.7669 103.57C54.6499 102.621 55.4473 101.844 55.5387 101.844C55.6302 101.844 55.7743 101.937 55.8591 102.052ZM70.7116 103.511C70.7116 104.173 65.5631 104.755 65.1959 104.135C65.0209 103.839 65.5133 103.679 66.6513 103.661C67.2643 103.652 68.1242 103.586 68.562 103.515C69.7539 103.321 70.7116 103.319 70.7116 103.511ZM74.3739 104.597C74.3739 105.057 73.2759 105.376 71.3884 105.465C70.2652 105.518 69.597 105.489 69.597 105.386C69.597 105.131 72.437 104.373 73.4583 104.355C74.186 104.342 74.3739 104.392 74.3739 104.597Z" fill="black"/>
<path fill-rule="evenodd" clip-rule="evenodd" d="M136.982 73.57C136.882 73.8013 136.332 74.6816 135.76 75.5263C134.501 77.3825 134.496 77.3855 132.717 77.1942C132.089 77.1267 131.505 77.1013 131.419 77.1377C131.193 77.233 130.501 78.3776 130.582 78.5217C130.666 78.6723 131.045 78.6827 131.045 78.5344C131.045 78.4747 131.118 78.4565 131.207 78.4942C131.308 78.537 131.465 78.449 131.625 78.2589C131.791 78.0608 131.939 77.9804 132.048 78.0278C132.302 78.1377 134.441 78.2368 134.745 78.1527C135.205 78.0257 137.335 75.0187 137.51 74.2497C137.569 73.9927 137.342 73.1496 137.214 73.1496C137.186 73.1496 137.081 73.3388 136.982 73.57ZM134.812 73.3795C134.56 73.4289 133.712 73.4753 132.928 73.4826C131.375 73.4969 131.092 73.5674 130.153 74.1741C129.389 74.6668 127.59 76.6459 126.777 77.8862C126.115 78.8976 125.879 79.1023 126.003 78.5589C126.042 78.3893 126.207 77.5191 126.37 76.625C126.532 75.7309 126.729 74.7056 126.808 74.3464C126.913 73.8643 126.919 73.6804 126.833 73.644C126.769 73.6169 125.347 73.608 123.674 73.6244C121.092 73.6496 120.62 73.6795 120.553 73.8223C120.174 74.6307 120.077 81.8043 120.406 84.725L120.605 86.4907H123.185H125.765L125.684 86.2384C125.571 85.885 125.631 81.8246 125.757 81.3087C125.86 80.8881 125.864 80.8856 126.143 81.0445C126.817 81.4287 128.021 83.6633 128.503 85.4256L128.778 86.4346L131.808 86.4643L134.838 86.4941L134.774 85.9575C134.738 85.6624 134.667 84.9428 134.616 84.3582C134.536 83.4395 134.2 81.3423 134.037 80.7457C133.917 80.3036 133.705 80.2126 132.794 80.2103C131.901 80.208 131.456 80.1497 129.518 79.7815C128.498 79.5877 128.448 79.565 128.417 79.2866C128.372 78.868 129.121 77.5412 129.964 76.5468C130.783 75.5808 130.964 75.4485 131.245 75.6139C131.481 75.7531 133.385 75.949 133.553 75.8514C133.766 75.7279 135.494 73.2503 135.349 73.2757C135.306 73.2835 135.064 73.3302 134.812 73.3795ZM142.371 73.9171C142.767 74.3904 143.363 75.4512 143.363 75.6837C143.363 76.0019 142.226 77.4713 141.421 78.1934C140.585 78.9446 139.414 79.7028 138.572 80.0383C138.24 80.1708 137.916 80.3363 137.853 80.4059C137.595 80.6905 137.385 84.0996 137.525 85.7339L137.59 86.4907H140.364H143.139L143.778 85.9616C144.13 85.6706 144.823 85.0077 145.318 84.4885C145.814 83.9693 146.235 83.5642 146.254 83.5882C146.456 83.8383 146.61 84.4819 146.669 85.324C146.709 85.8846 146.772 86.3891 146.808 86.4451C146.847 86.5039 147.989 86.5232 149.522 86.4907C151.787 86.4427 152.168 86.4104 152.164 86.2665C152.081 83.0443 151.88 81.0605 151.399 78.699C151.029 76.8836 150.104 73.9937 149.815 73.7487C149.705 73.656 148.589 73.6191 145.892 73.6193L142.122 73.6196L142.371 73.9171ZM155.299 73.9149C155.257 74.0798 155.224 75.9047 155.224 77.9703C155.226 81.8741 155.23 81.9273 155.753 84.9492L156.02 86.4907H158.541H161.062L161.095 86.2384C161.113 86.0997 161.096 85.6078 161.058 85.1454C160.952 83.8555 160.963 82.9245 161.084 82.8416C161.145 82.8005 161.768 82.6717 162.468 82.5553C164.514 82.2156 166.382 81.6632 168.068 80.8994L168.762 80.5851L168.734 79.1936C168.718 78.4283 168.582 76.8875 168.432 75.7695L168.158 73.7369L167.595 73.6814C167.285 73.6508 164.409 73.6235 161.204 73.6205L155.376 73.6151L155.299 73.9149ZM171.965 73.6785C171.546 73.7827 171.399 81.4615 171.753 84.7236C171.852 85.6324 171.961 86.4073 171.996 86.4457C172.093 86.5525 183.41 86.4925 183.508 86.3847C183.657 86.2206 184.287 83.6586 184.287 83.2155V82.7911H183.176C182.564 82.7911 181.992 82.7603 181.903 82.7229C181.781 82.6713 181.665 82.8346 181.428 83.3938C181.07 84.2347 180.7 84.6303 180.083 84.8289C179.558 84.9981 178.221 84.9681 177.466 84.7703L176.907 84.6235L176.938 83.6792C176.984 82.302 177.272 81.4103 177.808 80.9779C178.204 80.6588 178.271 80.6418 178.892 80.7022C179.256 80.7378 179.851 80.8715 180.214 80.9994C180.578 81.1275 180.976 81.2045 181.098 81.1705C181.349 81.1012 181.639 80.6848 181.844 80.1004C181.919 79.8846 182.065 79.5742 182.167 79.4105C182.269 79.2468 182.353 79.0955 182.353 79.0742C182.352 79.0064 181.017 78.9255 179.91 78.926C178.886 78.9265 178.81 78.9436 178.107 79.3311C177.703 79.5537 177.352 79.7133 177.328 79.6858C177.303 79.6585 177.367 79.2738 177.471 78.8312C177.574 78.3885 177.758 77.4714 177.878 76.7932C177.998 76.1149 178.144 75.497 178.201 75.4198C178.353 75.2165 180.341 75.2296 180.704 75.4364C181.254 75.7498 181.357 75.9804 181.319 76.8137L181.284 77.5779L182.404 77.539C183.07 77.5158 183.569 77.4477 183.637 77.3709C183.758 77.2316 184.292 74.4072 184.289 73.9188L184.287 73.623L178.205 73.6313C174.859 73.6358 172.051 73.6571 171.965 73.6785ZM191.721 73.7354C191.722 73.814 191.951 74.1995 192.23 74.5922C192.872 75.4971 192.877 75.7242 192.274 76.6082C191.38 77.9175 190.036 79.0323 188.407 79.8161C187.905 80.0577 187.418 80.3251 187.325 80.4104C187.231 80.4962 187.106 80.8787 187.045 81.267C186.916 82.0833 186.897 86.1409 187.021 86.3568C187.087 86.4714 187.729 86.504 189.98 86.5072C191.56 86.5094 192.876 86.487 192.903 86.4573C192.93 86.4277 192.835 85.9585 192.692 85.4149C192.261 83.7809 192.355 81.9033 192.99 79.4276C193.265 78.3555 193.62 77.4098 193.747 77.4098C193.793 77.4098 193.992 77.7503 194.189 78.1665C194.996 79.8717 195.708 82.5208 196.058 85.1173L196.244 86.4907H198.906H201.568L201.527 85.4537C201.366 81.4323 201.009 79.0891 200.096 76.0669C199.592 74.3975 199.334 73.7688 199.116 73.6766C199.036 73.643 197.339 73.6103 195.345 73.604C192.467 73.5948 191.719 73.6218 191.721 73.7354ZM204.617 73.678C204.408 73.7133 204.346 73.776 204.384 73.9143C204.412 74.0178 204.531 75.4921 204.649 77.1905C204.868 80.3343 204.847 82.1945 204.556 85.4256C204.512 85.9189 204.494 86.3604 204.517 86.4066C204.539 86.4529 205.608 86.4907 206.891 86.4907H209.224L209.401 86.1824C209.498 86.0129 209.812 85.5714 210.099 85.2014C210.386 84.8315 210.998 83.9738 211.458 83.2956C211.918 82.6173 212.458 81.8353 212.658 81.5579C212.858 81.2804 213.096 80.8768 213.186 80.661L213.352 80.2686L213.381 81.4874C213.397 82.1579 213.361 83.066 213.302 83.5054C213.058 85.3162 212.969 86.3937 213.057 86.4686C213.107 86.5115 214.346 86.5311 215.811 86.5119L218.474 86.477L218.593 85.7271C219.04 82.9303 219.291 79.4556 219.3 75.9179L219.307 73.5853L216.329 73.6497L213.352 73.7142L213.402 74.4129C213.43 74.7972 213.453 75.5908 213.453 76.1766C213.453 77.207 213.442 77.2597 213.105 77.795C212.469 78.8032 210.343 81.4457 210.167 81.4457C210.102 81.4457 210.095 81.2937 210.148 81.0253C210.252 80.4968 210.438 77.1654 210.474 75.1676L210.501 73.6541L207.702 73.642C206.162 73.6354 204.774 73.6515 204.617 73.678ZM222.985 73.6821C222.769 73.7244 222.751 73.771 222.807 74.1401C222.842 74.3661 222.944 75.3834 223.033 76.4008C223.219 78.5203 223.181 84.6334 222.975 85.6864C222.827 86.4414 222.906 86.549 223.6 86.5389C223.898 86.5345 224.926 86.5219 225.883 86.5109L227.624 86.4907L228.246 85.6218C228.589 85.144 229.363 84.0273 229.967 83.1403C231.559 80.8025 231.823 80.4368 231.922 80.4368C231.971 80.4368 231.974 80.6231 231.927 80.8572C231.881 81.0884 231.793 82.0848 231.73 83.0713C231.667 84.0579 231.574 85.0921 231.523 85.3696C231.472 85.6471 231.428 86.0129 231.426 86.1824L231.421 86.4907H234.163C236.687 86.4907 236.909 86.4751 236.957 86.2945C236.986 86.1865 237.06 85.5938 237.122 84.9772C237.185 84.3606 237.3 83.3768 237.378 82.7911C237.622 80.9695 237.805 76.3563 237.737 73.7257C237.734 73.5997 237.221 73.5803 234.789 73.6143C233.169 73.6368 231.82 73.6817 231.791 73.714C231.762 73.7462 231.79 74.2757 231.853 74.8906C232.03 76.6127 232.005 76.9936 231.676 77.547C231.349 78.0981 229.67 80.4017 229.141 81.0253C228.506 81.7744 228.493 81.7174 228.732 79.2596C228.913 77.3935 229.032 74.297 228.938 73.8847L228.871 73.592L226.049 73.6135C224.496 73.6254 223.118 73.6562 222.985 73.6821ZM185.916 73.9729C185.916 74.5151 185.307 77.5195 185.098 78.0096C184.839 78.6164 184.754 78.7035 184.288 78.836C183.989 78.9209 183.922 78.9989 183.868 79.3226C183.832 79.5346 183.638 80.036 183.437 80.4368C182.961 81.3835 182.961 81.4937 183.441 81.408C183.924 81.3217 184.135 81.0744 184.314 80.3881C184.444 79.8853 184.494 79.8241 184.856 79.7151C185.387 79.5551 185.621 79.0187 185.961 77.1714C186.316 75.2452 186.381 74.4709 186.223 74.0511C186.071 73.6452 185.916 73.606 185.916 73.9729ZM212.061 75.56C212.043 76.6082 212.036 77.4828 212.045 77.5035C212.055 77.5241 212.123 77.4232 212.198 77.2793C212.374 76.9396 212.385 74.205 212.212 73.8783C212.118 73.6998 212.087 74.0426 212.061 75.56ZM220.981 76.5468C220.975 79.1516 220.809 81.8535 220.535 83.8001C220.047 87.2644 219.934 87.6443 219.329 87.8388C219.082 87.9182 217.847 87.9486 215.769 87.9263C214.02 87.9074 212.588 87.9096 212.588 87.9309C212.588 88.126 213.001 88.6515 213.261 88.7872C213.748 89.0421 219.224 89.0368 219.804 88.7809C220.375 88.5294 220.401 88.4395 220.776 85.3576C221.216 81.7492 221.469 75.9278 221.25 74.4614C221.065 73.2206 220.986 73.8291 220.981 76.5468ZM230.454 75.6158C230.454 76.6523 230.487 77.4781 230.527 77.4509C230.683 77.3449 230.809 76.5246 230.809 75.616C230.809 74.7076 230.683 73.8874 230.527 73.7809C230.487 73.7536 230.454 74.5794 230.454 75.6158ZM239.4 76.7092C239.386 80.0012 239.104 83.3129 238.61 85.9836C238.389 87.1805 238.327 87.3606 238.043 87.6403L237.724 87.9541L234.369 87.923C231.76 87.8989 231.014 87.9229 231.014 88.0304C231.014 88.1065 231.148 88.3336 231.311 88.5349L231.608 88.9011L234.664 88.9351C238.199 88.9747 238.482 88.9316 238.715 88.3198C239.042 87.4575 239.501 83.0651 239.68 79.0914C239.817 76.0364 239.729 73.7097 239.477 73.7103C239.442 73.7104 239.407 75.0598 239.4 76.7092ZM169.73 73.8832C169.73 73.9169 169.798 74.2574 169.881 74.64C170.075 75.5278 170.33 77.9738 170.409 79.7115L170.471 81.0604L170.16 81.4034C169.538 82.0876 166.19 83.3293 163.723 83.7904L162.654 83.9902L162.689 85.5487C162.722 87.0053 162.71 87.1274 162.506 87.4129C162.143 87.9193 161.783 87.967 158.608 87.9281C156.998 87.9082 155.681 87.9072 155.681 87.9257C155.681 87.9441 155.753 88.112 155.84 88.2988C156.124 88.9034 156.41 88.9571 159.34 88.9571C163.125 88.9571 163.072 88.992 162.987 86.5433C162.949 85.4607 162.967 85.006 163.049 84.9828C163.112 84.9648 163.708 84.8395 164.373 84.7046C166.54 84.2647 169.895 83.0578 170.353 82.5528C170.601 82.2802 170.611 82.034 170.366 82.2428C170.217 82.3702 170.219 82.3548 170.379 82.148C170.555 81.9208 170.565 81.7472 170.515 79.9638C170.438 77.2615 170.264 75.3456 170.022 74.5229C169.843 73.9172 169.73 73.6692 169.73 73.8832ZM191.308 75.2613C191.375 75.4052 191.458 75.4924 191.492 75.4548C191.526 75.4172 191.471 75.2994 191.37 75.1929C191.194 75.0079 191.191 75.011 191.308 75.2613ZM141.839 75.3011C141.837 75.4054 141.885 75.524 141.945 75.5646C142.124 75.6866 142.149 75.5579 141.991 75.3276C141.86 75.1379 141.842 75.1346 141.839 75.3011ZM162.031 75.8545C162.551 76.5231 163.151 77.8703 163.457 79.0565C163.604 79.6231 163.723 80.1139 163.723 80.1473C163.723 80.3639 161.499 81.183 161.225 81.0673C161.052 80.9942 161.032 80.0127 161.175 78.643C161.224 78.1805 161.32 77.2598 161.39 76.597C161.46 75.9342 161.552 75.3918 161.594 75.3918C161.637 75.3918 161.833 75.6 162.031 75.8545ZM179.528 76.7544C179.458 76.8312 179.401 77.0409 179.401 77.2204C179.401 77.5368 179.412 77.5444 179.782 77.4683C180.263 77.3694 180.437 77.2131 180.398 76.9151C180.375 76.7366 180.283 76.6732 180.011 76.6479C179.815 76.6297 179.597 76.6776 179.528 76.7544ZM144.819 78.2786C145.352 79.5365 145.908 81.1707 145.908 81.4805C145.908 81.6603 145.716 81.9484 145.323 82.3601C144.741 82.9686 143.357 84.0243 143.142 84.0243C142.755 84.0243 143.677 78.5046 144.228 77.5221C144.355 77.2958 144.458 77.4276 144.819 78.2786ZM153.072 78.8672C153.417 80.3009 153.745 83.5176 153.765 85.6839C153.779 87.1924 153.685 87.4987 153.11 87.8094C152.756 88.0012 149.926 88.0963 147.969 87.9824C147.116 87.9328 146.417 87.9306 146.417 87.9778C146.417 88.0249 146.574 88.2519 146.766 88.4823L147.114 88.9011H150.257C153.816 88.9011 153.848 88.8939 154.05 88.0688C154.274 87.1521 153.781 81.1876 153.342 79.4958C153.157 78.7851 152.917 78.2269 153.072 78.8672ZM202.87 81.2215C202.898 81.684 202.964 82.5668 203.017 83.1834C203.152 84.7506 203.145 86.9818 203.005 87.3209C202.799 87.8183 202.409 87.9156 200.372 87.9778C199.336 88.0094 197.902 88.0031 197.186 87.9637L195.883 87.8921L195.947 88.1723C196.029 88.5361 196.303 88.8675 196.465 88.7992C196.535 88.7697 196.61 88.8058 196.633 88.8793C196.664 88.9819 196.71 88.9808 196.827 88.8744C197.026 88.6935 197.516 88.6793 198.336 88.8305C199.069 88.9657 202.025 88.9892 202.661 88.8648C203.004 88.7979 203.105 88.7101 203.309 88.3025C203.53 87.8615 203.542 87.7643 203.446 87.1831C203.387 86.8331 203.335 85.9414 203.33 85.2014C203.321 83.8855 203.101 81.554 202.913 80.7731C202.841 80.4722 202.831 80.5768 202.87 81.2215ZM194.128 81.67C193.922 83.3644 193.938 83.8409 194.258 85.4171L194.572 86.9632L194.363 87.3365C194.241 87.5541 194.015 87.7599 193.821 87.8303C193.427 87.9737 187.201 88.0457 186.858 87.9108C186.484 87.7642 186.569 88.2038 186.994 88.6146L187.36 88.9681L190.786 88.9346C194.556 88.8977 194.526 88.9032 194.831 88.1966C194.978 87.8535 194.975 87.7755 194.788 87.1305C194.371 85.6946 194.314 85.2369 194.339 83.5198C194.352 82.5949 194.324 81.6868 194.276 81.5018C194.191 81.171 194.189 81.1738 194.128 81.67ZM178.651 82.6386C178.517 83.7148 178.575 83.7766 179.2 83.2237C179.59 82.8783 179.604 82.8749 179.932 83.0501C180.213 83.2006 180.298 83.2053 180.47 83.0803C180.582 82.9987 180.673 82.8389 180.673 82.7254C180.673 82.4786 179.795 82.136 179.135 82.1252L178.716 82.1184L178.651 82.6386ZM136.307 85.6292C136.378 87.3558 136.308 87.6065 135.697 87.8288C135.296 87.9744 129.116 88.0528 128.678 87.918C128.299 87.8013 128.32 87.9692 128.747 88.4823L129.095 88.9011H132.557C135.891 88.9011 136.029 88.8925 136.299 88.6707C136.692 88.3475 136.865 87.75 136.665 87.4104C136.563 87.2386 136.486 86.6672 136.432 85.6891C136.388 84.8839 136.327 84.1987 136.298 84.1664C136.269 84.134 136.273 84.7923 136.307 85.6292ZM185.625 84.8651C185.287 86.5143 184.83 87.6354 184.42 87.8209C184.225 87.9091 182.854 87.9585 180.088 87.977L176.042 88.0042L176.041 88.4806L176.041 88.9571L180.291 88.9567C184.366 88.9563 184.556 88.947 184.877 88.7314C185.5 88.3128 185.839 87.0481 185.793 85.3086L185.763 84.1924L185.625 84.8651ZM127.246 85.4817C127.209 85.8208 127.178 86.3152 127.177 86.5804C127.176 87.2725 126.948 87.6902 126.489 87.8388C126.238 87.9201 125.092 87.9503 123.13 87.9272C121.492 87.9079 120.152 87.9306 120.152 87.9778C120.152 88.0249 120.309 88.2519 120.501 88.4823L120.849 88.9011L123.65 88.9341C125.191 88.9523 126.599 88.9248 126.781 88.8731C126.962 88.8213 127.205 88.6388 127.322 88.4674C127.51 88.1888 127.531 88.017 127.513 86.8468C127.501 86.1268 127.452 85.3864 127.403 85.2014C127.319 84.8858 127.309 84.9031 127.246 85.4817ZM211.875 85.4222C211.217 86.3759 210.437 87.3794 210.142 87.6532L209.816 87.9548L206.977 87.9235C203.832 87.8887 203.809 87.8945 204.451 88.5718L204.763 88.9011H207.551H210.34L210.807 88.3966C211.064 88.1191 211.442 87.6235 211.648 87.295C211.962 86.7935 212.033 86.5694 212.09 85.8936C212.128 85.4513 212.152 85.0812 212.144 85.0714C212.136 85.0615 212.015 85.2194 211.875 85.4222ZM229.839 86.0671C229.562 86.442 229.174 86.9639 228.978 87.227C228.782 87.49 228.507 87.76 228.367 87.8268C228.21 87.9018 227.05 87.9591 225.339 87.9763C223.464 87.9951 222.565 88.0429 222.565 88.1234C222.565 88.1889 222.705 88.3907 222.877 88.5718L223.189 88.9011H225.995H228.801L229.449 88.1163C229.805 87.6847 230.173 87.1549 230.267 86.9391C230.464 86.4856 230.572 85.5402 230.436 85.4483C230.386 85.4138 230.117 85.6924 229.839 86.0671ZM144.985 86.9349C144.569 87.3038 144.091 87.6768 143.923 87.7639C143.555 87.9545 138.8 88.1129 137.789 87.9682C137.439 87.9182 137.153 87.8957 137.153 87.9182C137.153 88.1543 137.523 88.6189 137.834 88.7734C138.181 88.9453 138.558 88.9634 141.191 88.934L144.157 88.9011L145.033 88.2394L145.908 87.5777L145.906 87.0622C145.904 86.2025 145.824 86.1914 144.985 86.9349ZM171.587 87.994C171.556 88.0499 171.72 88.291 171.952 88.5294L172.374 88.9632L173.877 88.9321L175.38 88.9011L175.411 88.4294L175.442 87.9578L173.543 87.9249C172.478 87.9065 171.619 87.9368 171.587 87.994ZM139.393 88.497C139.393 88.6213 138.371 88.6446 138.194 88.5243C138.123 88.4759 138.362 88.4278 138.729 88.4166C139.094 88.4056 139.393 88.4417 139.393 88.497ZM177.059 88.5087C177.059 88.5703 177.011 88.6208 176.951 88.6208C176.892 88.6208 176.872 88.5703 176.907 88.5087C176.941 88.447 176.99 88.3966 177.014 88.3966C177.039 88.3966 177.059 88.447 177.059 88.5087ZM205.818 88.5087C205.784 88.5703 205.692 88.6208 205.615 88.6208C205.537 88.6208 205.446 88.5703 205.411 88.5087C205.375 88.4449 205.463 88.3966 205.615 88.3966C205.766 88.3966 205.854 88.4449 205.818 88.5087ZM198.206 88.6885C198.173 88.7257 198.085 88.7298 198.011 88.6974C197.93 88.6616 197.954 88.635 198.073 88.6296C198.18 88.6248 198.24 88.6513 198.206 88.6885Z" fill="black"/>
<path fill-rule="evenodd" clip-rule="evenodd" d="M111.543 33.378C111.579 33.6913 111.688 34.5118 111.786 35.2017C111.884 35.8913 111.919 36.5048 111.865 36.5646C111.81 36.6244 110.288 36.6616 108.481 36.6471C106.112 36.6281 105.136 36.6714 104.978 36.8026C104.693 37.0393 103.95 39.5688 103.79 40.8455C103.721 41.3943 103.648 42.7992 103.628 43.9674L103.59 46.0916L104.052 46.4343C105.007 47.1434 109.086 48.3402 111.679 48.6725C112.719 48.8058 112.942 49.0547 112.828 49.9564C112.78 50.338 112.702 51.419 112.656 52.3585L112.571 54.0667H116.57H120.568L120.67 52.6621C120.726 51.8896 120.812 50.711 120.861 50.0428L120.951 48.8281L122.261 48.6564C123.643 48.4751 126.292 47.7865 127.784 47.2205C129.425 46.598 129.841 46.3529 130.006 45.9097C130.225 45.3229 130.224 41.4881 130.005 40.0971C129.814 38.8878 129.34 37.1003 129.132 36.81C129.043 36.6858 127.853 36.6372 124.991 36.6408C121.258 36.6455 120.962 36.6263 120.791 36.3684C120.69 36.216 120.606 35.8821 120.605 35.6267C120.604 35.3711 120.566 35.0119 120.522 34.828C120.433 34.4623 120.085 34.3519 117.78 33.9581C115.238 33.5233 113.754 33.2487 112.778 33.0317C111.429 32.7318 111.467 32.7208 111.543 33.378ZM141.84 35.938C138.055 36.7228 136.642 37.452 134.654 39.6466C133.845 40.5402 133.466 41.112 133.005 42.1357C132.413 43.4512 132.407 43.4838 132.35 45.3554C132.316 46.473 132.36 47.6212 132.457 48.1636C132.68 49.413 133.574 51.6407 134.37 52.9279C134.994 53.9381 135.074 54.0095 135.986 54.3673C136.867 54.7128 137.144 54.7441 139.359 54.747C141.281 54.7494 141.968 54.6926 142.737 54.4673C146.563 53.3465 149.952 49.8462 150.744 46.1974C150.995 45.0401 150.989 42.0878 150.733 40.8914C150.384 39.2636 149.007 36.6717 148.42 36.5391C146.143 36.0247 142.866 35.7252 141.84 35.938ZM153.917 36.7927C153.785 37.3014 153.558 40.9817 153.559 42.5889C153.561 45.5654 154.336 52.5073 154.802 53.7251C154.933 54.0661 154.939 54.0667 158.314 54.0667C160.921 54.0667 161.698 54.0233 161.708 53.8769C161.715 53.7726 161.71 52.6477 161.697 51.3774C161.67 48.7133 161.456 49.0325 163.459 48.747C165.793 48.4145 169.192 47.4267 171.152 46.5116L172.105 46.0665L172.104 44.7901C172.101 43.239 171.688 38.9917 171.419 37.7575C171.312 37.2642 171.143 36.805 171.044 36.7373C170.945 36.6695 167.062 36.6112 162.415 36.6076C155.727 36.6024 153.956 36.641 153.917 36.7927ZM176.403 36.7951C176.042 37.0853 175.904 39.0992 175.906 44.045C175.907 47.8079 176.018 50.451 176.287 53.0797L176.38 53.9908H184.232H192.085L192.322 53.2616C192.452 52.8606 192.725 51.8395 192.928 50.9925C193.4 49.0225 193.431 49.0559 191.113 49.0559H189.422L189.331 49.5881C189.218 50.2559 188.571 51.2536 188.065 51.5417C187.223 52.0215 186.126 52.1169 184.6 51.8431L183.168 51.5862L183.237 49.8825C183.294 48.4573 183.359 48.073 183.634 47.53C184.333 46.1513 185.066 45.9502 187.244 46.5394C188.38 46.8467 188.787 46.9014 189 46.7755C189.153 46.6854 189.552 46.0011 189.887 45.2548L190.496 43.8979L189.711 43.8718C186.247 43.7567 185.804 43.7968 184.804 44.3158C184.281 44.5873 183.821 44.7737 183.781 44.7298C183.694 44.6346 184.712 39.4483 184.874 39.1593C185.023 38.8936 187.482 38.7897 188.179 39.0196C189.02 39.297 189.358 40.1961 189.084 41.4257L188.974 41.9192H190.475C191.47 41.9192 192.057 41.8542 192.216 41.7267C192.37 41.6022 192.5 41.1829 192.583 40.5379C192.653 39.99 192.805 39.103 192.92 38.5667C193.034 38.0304 193.129 37.3735 193.13 37.1067L193.132 36.6217L184.89 36.6096C178.322 36.5997 176.599 36.6375 176.403 36.7951ZM203.266 36.7315C203.232 36.7699 203.552 37.349 203.978 38.0187L204.753 39.2363L204.503 39.7474C204.069 40.6343 202.616 42.3461 201.543 43.2349C200.646 43.9781 199.406 44.7097 197.526 45.6067C197.028 45.8441 197.023 45.8553 196.845 47.1852C196.65 48.6401 196.628 53.7257 196.816 53.9326C196.936 54.0647 204.695 54.1391 204.812 54.0093C204.85 53.968 204.735 53.4687 204.557 52.8996C204.271 51.9814 204.235 51.6002 204.244 49.5114C204.251 47.4506 204.3 46.9595 204.632 45.5635C205.044 43.8341 205.769 41.7674 205.965 41.7674C206.193 41.7674 206.54 42.5278 207.288 44.6638C208.192 47.2433 208.805 49.823 209 51.865C209.079 52.7001 209.173 53.5371 209.207 53.7251L209.27 54.0667H212.852H216.434V52.0072C216.434 47.7312 215.381 41.8521 213.952 38.1552L213.348 36.5927L208.339 36.6273C205.584 36.6463 203.301 36.6932 203.266 36.7315ZM220.645 36.7514C220.621 36.796 220.473 37.4133 220.315 38.1231C219.874 40.1042 219.666 45.104 219.876 48.6351C220.094 52.3064 220.23 53.5694 220.435 53.8415C220.581 54.0359 221.707 54.0667 228.644 54.0667C236.183 54.0667 236.689 54.0502 236.753 53.801C237.14 52.3049 237.788 46.4293 237.619 45.9458C237.37 45.2324 232.276 43.3683 229.533 42.9871C227.541 42.7103 227.718 42.8878 227.815 41.2696C227.862 40.4995 227.988 39.2714 228.096 38.5407C228.204 37.8099 228.292 37.0859 228.292 36.9319C228.292 36.6662 228.096 36.6522 224.49 36.661C222.399 36.666 220.669 36.7067 220.645 36.7514ZM195.426 37.0624C195.387 37.2699 195.194 38.3538 194.999 39.4707C194.803 40.5877 194.504 41.886 194.335 42.3558C194.067 43.1038 193.947 43.2527 193.374 43.5544C193.013 43.7439 192.719 43.9831 192.718 44.0859C192.718 44.1887 192.439 44.8697 192.098 45.5991C191.757 46.3288 191.478 46.9949 191.478 47.0796C191.478 47.3122 192.204 47.2644 192.534 47.0101C192.693 46.8871 192.964 46.3493 193.135 45.8151C193.394 45.0064 193.491 44.8565 193.711 44.92C194.048 45.017 194.73 44.3159 194.92 43.6783C195.047 43.25 195.301 41.9818 195.408 41.2359C195.432 41.0689 195.523 40.5906 195.611 40.173C195.822 39.1658 195.845 37.3636 195.652 36.9864C195.504 36.6972 195.495 36.7002 195.426 37.0624ZM230.399 36.9925C230.431 37.1641 230.352 38.1207 230.222 39.1183C230.092 40.1161 230.014 40.9872 230.048 41.0545C230.082 41.1217 230.208 41.1559 230.328 41.1304C230.598 41.073 230.89 39.6476 230.903 38.3298C230.91 37.5934 230.852 37.3223 230.626 37.0391C230.359 36.7048 230.343 36.7016 230.399 36.9925ZM131.795 37.6676C131.795 37.7929 131.848 38.032 131.913 38.1991C131.988 38.3905 132.031 38.4185 132.031 38.275C132.031 38.1497 131.978 37.9106 131.913 37.7435C131.838 37.552 131.795 37.5241 131.795 37.6676ZM173.702 38.0598C173.709 38.2367 173.741 38.2727 173.785 38.1517C173.825 38.042 173.82 37.911 173.774 37.8606C173.729 37.8102 173.696 37.8998 173.702 38.0598ZM173.84 38.6672C173.846 38.8441 173.879 38.8801 173.923 38.7591C173.963 38.6494 173.958 38.5184 173.912 38.468C173.866 38.4176 173.834 38.5071 173.84 38.6672ZM132.062 38.819C132.068 38.9959 132.101 39.0319 132.145 38.9109C132.185 38.8013 132.18 38.6702 132.134 38.6198C132.088 38.5694 132.056 38.659 132.062 38.819ZM202.648 38.8354C202.649 38.903 202.711 39.0608 202.784 39.186C202.899 39.3824 202.918 39.3783 202.92 39.157C202.921 39.0158 202.86 38.8581 202.784 38.8064C202.708 38.7548 202.647 38.7679 202.648 38.8354ZM140.751 39.3638C142.31 40.6014 143.515 42.4335 144.19 44.5946C144.529 45.6801 144.669 47.9275 144.476 49.2077C144.315 50.285 143.461 52.3623 143.12 52.5061C142.795 52.6436 142.019 52.1114 141.192 51.184C139.559 49.3509 138.529 46.0419 138.711 43.2085C138.842 41.1693 139.502 38.8824 139.961 38.8824C140.062 38.8824 140.417 39.099 140.751 39.3638ZM164.212 41.8682C164.61 42.8093 165.28 45.076 165.28 45.4816C165.28 45.792 162.134 46.9071 161.834 46.7032C161.641 46.5716 161.663 45.2416 161.898 42.8303C162.104 40.7186 162.319 39.2746 162.465 39.0134C162.589 38.7932 163.634 40.5012 164.212 41.8682ZM112.381 39.7555C112.426 40.0687 112.506 41.7536 112.559 43.4998L112.654 46.6747L112.322 46.5685C112.139 46.5102 111.555 46.359 111.024 46.2323C109.65 45.9048 109.606 45.8321 109.913 44.3972C110.324 42.4766 111.153 40.3724 111.832 39.5277C112.206 39.0615 112.285 39.0943 112.381 39.7555ZM121.296 39.3462C121.296 39.4343 121.548 39.9156 121.857 40.4158C122.91 42.1228 124.112 45.394 123.856 45.8514C123.756 46.0284 121.327 46.5199 121.075 46.4138C120.777 46.2875 120.79 39.186 121.089 39.186C121.203 39.186 121.296 39.2582 121.296 39.3462ZM132.21 39.4897C132.21 39.6985 132.242 39.784 132.28 39.6795C132.318 39.5752 132.318 39.4044 132.28 39.2999C132.242 39.1956 132.21 39.2809 132.21 39.4897ZM174.061 40.8563C174.095 41.3992 174.177 42.5949 174.244 43.5136C174.359 45.1129 174.362 45.0858 174.3 42.8725C174.265 41.6013 174.183 40.4055 174.117 40.2152C174.039 39.987 174.019 40.2052 174.061 40.8563ZM186.833 40.672C186.619 40.8212 186.352 41.6011 186.452 41.7801C186.576 42 187.25 41.9421 187.586 41.6828C188.003 41.3615 187.98 40.8853 187.539 40.7007C187.119 40.5247 187.047 40.5218 186.833 40.672ZM187.391 41.0832C187.348 41.208 187.256 41.2716 187.187 41.2245C187.042 41.1261 187.158 40.8563 187.345 40.8563C187.414 40.8563 187.435 40.9584 187.391 41.0832ZM140.983 42.8573C140.901 44.4166 141.059 46.244 141.363 47.2518C141.489 47.6703 141.612 47.9911 141.636 47.9649C141.659 47.9386 141.583 47.4522 141.467 46.8842C141.306 46.0922 141.28 45.4432 141.356 44.0998L141.455 42.3482L141.849 42.8549C142.066 43.1337 142.243 43.2934 142.242 43.2099C142.242 43.1264 141.973 42.7285 141.646 42.3259L141.05 41.5937L140.983 42.8573ZM229.809 45.4803L230.567 45.8172L230.54 46.6393C230.493 48.0542 229.143 51.6372 228.657 51.6372C228.391 51.6372 227.983 50.2014 227.862 48.8393C227.56 45.4365 227.56 45.4241 227.744 45.179C227.969 44.8811 228.701 44.9878 229.809 45.4803ZM174.321 46.3811C174.271 46.7472 174.122 47.1545 173.991 47.286C173.231 48.0431 168.097 49.9186 165.418 50.4174C164.925 50.5092 164.345 50.623 164.13 50.6704L163.737 50.7567L163.835 52.6193C163.952 54.8514 163.822 55.4259 163.116 55.7965C162.722 56.0036 162.039 56.0407 158.616 56.0407C155.576 56.0407 154.536 55.9939 154.4 55.8509C154.301 55.7465 154.346 55.9389 154.5 56.2786C154.882 57.1169 155.066 57.2539 155.924 57.3394C156.451 57.3916 156.584 57.3714 156.387 57.2688C156.136 57.1379 156.145 57.1239 156.482 57.1142C156.686 57.1084 156.892 57.1719 156.938 57.2554C156.985 57.3389 157.098 57.4062 157.188 57.405C157.287 57.4035 157.269 57.3438 157.145 57.2554C157.032 57.1745 157.004 57.1072 157.083 57.1058C157.163 57.1046 157.296 57.1781 157.378 57.2691C157.48 57.3816 158.471 57.4179 160.474 57.3822C163.673 57.3251 163.885 57.2724 164.191 56.4585C164.352 56.0316 164.29 52.7072 164.103 51.7131C164.045 51.4018 164.059 51.323 164.15 51.4644C164.423 51.8923 165.347 51.9161 166.829 51.5335C170.035 50.7058 173.824 49.2814 174.26 48.7399C174.427 48.5322 174.49 48.114 174.507 47.0884C174.519 46.3332 174.503 45.7153 174.471 45.7153C174.438 45.7153 174.371 46.0149 174.321 46.3811ZM239.832 47.568C239.741 49.4415 239.169 53.4353 238.836 54.5222C238.477 55.6972 238.266 55.8852 237.11 56.0644C235.954 56.2437 220.723 56.1479 220.177 55.9581L219.852 55.8449L220.19 56.4364C220.406 56.8134 220.698 57.0908 220.998 57.202C221.334 57.3268 223.877 57.3685 229.971 57.3493C240.217 57.3168 239.095 57.6862 239.667 54.1584C240.09 51.5535 240.342 48.5669 240.255 47.2158C240.141 45.4655 239.926 45.6445 239.832 47.568ZM206.491 47.3476C206.219 48.1188 206.19 49.9741 206.426 51.4668C206.549 52.25 206.714 53.0017 206.792 53.1371C206.899 53.3225 206.906 53.2896 206.824 53.0038C206.763 52.795 206.728 51.3431 206.745 49.7771C206.762 48.2113 206.745 46.9301 206.707 46.9301C206.669 46.9301 206.572 47.118 206.491 47.3476ZM103.147 48.259C103.431 48.8642 103.756 49.1433 104.757 49.6427C106.49 50.5078 111.003 51.81 111.38 51.5537C111.542 51.4431 111.545 50.7703 111.384 50.6605C111.316 50.6145 110.463 50.4009 109.488 50.1859C107.591 49.7674 105.005 48.8831 103.789 48.237C103.379 48.0192 103.023 47.8411 102.997 47.8411C102.972 47.8411 103.039 48.0293 103.147 48.259ZM151.971 49.2144C151.088 50.8727 150.32 51.8826 148.904 53.246C147.523 54.5758 145.334 55.8531 143.564 56.3633C140.602 57.2165 135.552 56.6842 134.263 55.383C133.736 54.8514 133.804 54.992 134.611 56.1034C135.301 57.0527 136.118 57.4596 138.142 57.861C140.205 58.27 141.692 58.2524 143.513 57.7976C146.218 57.1216 148.226 55.9418 150.221 53.8544C151.239 52.7895 152.524 50.8645 152.683 50.1651C152.731 49.9548 152.709 49.5644 152.635 49.2976C152.555 49.0114 152.549 48.6665 152.619 48.4565C152.868 47.7155 152.606 48.0229 151.971 49.2144ZM129.645 48.6881C128.286 49.2736 125.861 50.0128 124.467 50.2664C122.84 50.5625 123.005 50.3588 122.896 52.2037C122.765 54.4483 122.632 55.0938 122.208 55.561L121.848 55.9578L118.196 56.0938C116.007 56.1755 114.074 56.1744 113.37 56.0914C112.109 55.9426 112.017 55.995 112.421 56.6303C112.879 57.3514 113.262 57.4073 117.741 57.407C123.305 57.4067 123.217 57.4569 123.322 54.2295C123.407 51.6422 123.259 51.8824 124.958 51.5775C126.487 51.3031 128.33 50.7538 130.18 50.0207L131.274 49.5873L131.3 48.8661C131.332 47.9776 131.301 47.9743 129.645 48.6881ZM185.642 48.2587C185.485 48.5489 185.4 49.9414 185.533 50.0318C185.611 50.0854 185.988 49.8878 186.37 49.5925C187.045 49.0698 187.068 49.0636 187.235 49.3594C187.33 49.5266 187.546 49.6632 187.714 49.6632C188.04 49.6632 188.373 49.1619 188.261 48.8401C188.127 48.455 185.813 47.9413 185.642 48.2587ZM109.748 50.6748C109.654 50.717 109.499 50.717 109.404 50.6748C109.309 50.6328 109.387 50.5983 109.576 50.5983C109.766 50.5983 109.843 50.6328 109.748 50.6748ZM166.484 50.666C166.438 50.7164 166.319 50.7219 166.22 50.678C166.11 50.6296 166.142 50.5936 166.303 50.5863C166.448 50.5798 166.53 50.6156 166.484 50.666ZM195.028 50.9284C194.971 51.0813 194.925 51.4313 194.925 51.7061C194.925 52.3084 194.329 54.3727 193.93 55.1554C193.772 55.4655 193.481 55.791 193.284 55.879C192.85 56.0727 176.676 56.1801 176.207 55.9925C175.729 55.8009 175.816 56.1987 176.387 56.8081L176.878 57.3313L183.729 57.3243C187.498 57.3206 190.768 57.2639 190.995 57.1986C191.301 57.1109 191.355 57.1216 191.202 57.2396C190.966 57.4217 192.752 57.3449 193.021 57.1613C193.115 57.0978 193.136 57.1256 193.076 57.2319C192.956 57.4463 193.058 57.4495 193.704 57.2518C194.314 57.0652 194.541 56.708 194.919 55.3358C195.159 54.4668 195.203 53.9644 195.171 52.4663C195.149 51.4674 195.085 50.7753 195.028 50.9284ZM218.741 52.9024C218.686 53.0553 218.639 53.5336 218.638 53.9653C218.636 54.96 218.417 55.4392 217.811 55.778C217.377 56.0209 216.917 56.0429 213.036 56.0057L208.741 55.9647L208.92 56.3447C209.018 56.5537 209.235 56.8612 209.402 57.028C209.69 57.3145 209.934 57.3339 213.8 57.3775C216.327 57.4059 218.034 57.3649 218.26 57.2703C218.877 57.012 219.118 56.4326 219.079 55.2965C219.027 53.756 218.86 52.5727 218.741 52.9024ZM207.06 54.4504C207.058 55.0446 206.72 55.566 206.176 55.8162C205.618 56.073 198.108 56.2865 196.959 56.0783C196.005 55.9057 195.945 56.0493 196.656 56.8081L197.146 57.3313H201.861C206.229 57.3313 206.604 57.3105 206.954 57.0491C207.615 56.5548 207.739 55.125 207.198 54.2185C207.094 54.0426 207.062 54.0954 207.06 54.4504Z" fill="black"/>
</svg>
