<svg width="2681" height="376" viewBox="0 0 2681 376" fill="none" xmlns="http://www.w3.org/2000/svg">
<path fill-rule="evenodd" clip-rule="evenodd" d="M495.018 41.5785C495.28 43.6415 496.073 49.0455 496.78 53.5885C497.488 58.1305 497.745 62.1705 497.35 62.5645C496.956 62.9585 485.914 63.2035 472.812 63.1075C455.628 62.9825 448.549 63.2675 447.404 64.1315C445.338 65.6905 439.948 82.3495 438.789 90.7575C438.291 94.3715 437.761 103.623 437.611 111.317L437.338 125.306L440.687 127.563C447.617 132.233 477.194 140.115 496.004 142.303C503.547 143.181 505.163 144.82 504.338 150.759C503.989 153.272 503.427 160.391 503.089 166.578L502.474 177.828H531.475H560.476L561.212 168.578C561.617 163.49 562.242 155.728 562.6 151.328L563.253 143.328L572.753 142.197C582.775 141.003 601.986 136.468 612.807 132.741C624.709 128.641 627.723 127.027 628.923 124.108C630.512 120.244 630.507 94.9895 628.916 85.8285C627.533 77.8645 624.089 66.0925 622.582 64.1805C621.938 63.3625 613.311 63.0425 592.551 63.0665C565.477 63.0975 563.33 62.9705 562.089 61.2725C561.354 60.2685 560.747 58.0695 560.739 56.3875C560.732 54.7045 560.46 52.3385 560.136 51.1275C559.49 48.7195 556.969 47.9925 540.253 45.3985C521.813 42.5355 511.051 40.7265 503.975 39.2975C494.188 37.3225 494.47 37.2505 495.018 41.5785ZM714.753 58.4375C687.295 63.6065 677.049 68.4085 662.632 82.8615C656.763 88.7465 654.015 92.5125 650.675 99.2545C646.382 107.917 646.334 108.132 645.923 120.458C645.678 127.818 645.995 135.38 646.698 138.952C648.316 147.18 654.803 161.851 660.571 170.328C665.097 176.981 665.679 177.451 672.293 179.808C678.681 182.083 680.692 182.289 696.753 182.308C710.696 182.324 715.676 181.95 721.253 180.466C749.001 173.085 773.58 150.033 779.325 126.003C781.147 118.381 781.103 98.9385 779.245 91.0595C776.718 80.3395 766.73 63.2695 762.474 62.3965C745.956 59.0085 722.192 57.0365 714.753 58.4375ZM1671.07 62.5785C1670.09 64.6415 1664.69 72.4935 1659.06 80.0285C1646.7 96.5855 1646.65 96.6115 1629.18 94.9055C1623.01 94.3035 1617.27 94.0765 1616.42 94.4015C1614.21 95.2515 1607.41 105.461 1608.2 106.746C1609.03 108.089 1612.75 108.182 1612.75 106.859C1612.75 106.327 1613.47 106.165 1614.34 106.501C1615.34 106.883 1616.87 106.098 1618.45 104.402C1620.09 102.635 1621.53 101.918 1622.61 102.341C1625.1 103.321 1646.11 104.205 1649.1 103.455C1653.62 102.322 1674.54 75.5005 1676.26 68.6415C1676.84 66.3485 1674.61 58.8285 1673.35 58.8285C1673.07 58.8285 1672.05 60.5165 1671.07 62.5785ZM1649.75 60.8795C1647.28 61.3195 1638.95 61.7335 1631.25 61.7985C1615.99 61.9265 1613.21 62.5555 1603.99 67.9665C1596.49 72.3615 1578.81 90.0145 1570.83 101.078C1564.32 110.099 1562.01 111.925 1563.23 107.078C1563.61 105.565 1565.23 97.8035 1566.83 89.8285C1568.42 81.8535 1570.36 72.7075 1571.13 69.5035C1572.16 65.2035 1572.22 63.5635 1571.38 63.2385C1570.75 62.9965 1556.78 62.9175 1540.35 63.0635C1514.99 63.2885 1510.35 63.5555 1509.69 64.8285C1505.96 72.0395 1505.01 136.026 1508.24 162.078L1510.2 177.828H1535.54H1560.89L1560.09 175.578C1558.98 172.425 1559.57 136.207 1560.81 131.606C1561.82 127.854 1561.86 127.832 1564.6 129.249C1571.23 132.676 1583.05 152.608 1587.78 168.328L1590.49 177.328L1620.25 177.593L1650.01 177.858L1649.38 173.072C1649.03 170.44 1648.33 164.021 1647.83 158.807C1647.05 150.612 1643.74 131.905 1642.15 126.584C1640.96 122.64 1638.89 121.829 1629.93 121.808C1621.16 121.788 1616.79 121.268 1597.75 117.983C1587.73 116.255 1587.24 116.052 1586.94 113.569C1586.5 109.835 1593.86 98.0005 1602.13 89.1305C1610.18 80.5145 1611.96 79.3345 1614.72 80.8095C1617.04 82.0515 1635.74 83.7985 1637.39 82.9285C1639.48 81.8265 1656.45 59.7265 1655.03 59.9535C1654.6 60.0225 1652.23 60.4395 1649.75 60.8795ZM802.34 64.0665C801.385 67.4165 799.737 91.6545 799.745 102.238C799.758 121.841 805.379 167.558 808.761 175.578C809.709 177.824 809.749 177.828 834.232 177.828C853.134 177.828 858.774 177.542 858.843 176.578C858.892 175.891 858.856 168.483 858.763 160.117C858.568 142.572 857.018 144.674 871.544 142.794C888.475 140.604 913.127 134.099 927.34 128.072L934.253 125.141L934.24 116.735C934.224 106.52 931.227 78.5485 929.277 70.4205C928.498 67.1715 927.273 64.1475 926.556 63.7015C925.84 63.2555 897.678 62.8715 863.976 62.8475C815.465 62.8135 802.625 63.0675 802.34 64.0665ZM965.421 64.0825C962.807 65.9935 961.806 79.2565 961.815 111.828C961.823 136.609 962.631 154.016 964.578 171.328L965.253 177.328H1022.21H1079.16L1080.88 172.526C1081.82 169.885 1083.8 163.16 1085.27 157.582C1088.69 144.608 1088.92 144.828 1072.11 144.828H1059.84L1059.19 148.333C1058.36 152.731 1053.67 159.302 1050 161.199C1043.89 164.359 1035.94 164.987 1024.87 163.184L1014.49 161.492L1014.98 150.272C1015.4 140.886 1015.87 138.355 1017.87 134.779C1022.94 125.699 1028.25 124.375 1044.05 128.255C1052.29 130.279 1055.24 130.639 1056.79 129.81C1057.89 129.217 1060.79 124.71 1063.22 119.795L1067.63 110.859L1061.94 110.687C1036.82 109.929 1033.6 110.193 1026.35 113.611C1022.56 115.399 1019.22 116.627 1018.93 116.338C1018.3 115.711 1025.69 81.5555 1026.86 79.6525C1027.94 77.9025 1045.77 77.2185 1050.83 78.7325C1056.92 80.5595 1059.38 86.4805 1057.39 94.5785L1056.59 97.8285H1067.48C1074.7 97.8285 1078.96 97.4005 1080.1 96.5605C1081.23 95.7405 1082.17 92.9795 1082.77 88.7315C1083.28 85.1235 1084.38 79.2815 1085.21 75.7495C1086.04 72.2175 1086.73 67.8915 1086.74 66.1345L1086.75 62.9405L1026.98 62.8605C979.341 62.7955 966.84 63.0445 965.421 64.0825ZM1160.25 63.6635C1160 63.9165 1162.32 67.7305 1165.41 72.1405L1171.03 80.1595L1169.22 83.5255C1166.07 89.3665 1155.54 100.639 1147.75 106.493C1141.25 111.387 1132.26 116.205 1118.62 122.113C1115 123.676 1114.97 123.75 1113.68 132.508C1112.26 142.09 1112.11 175.582 1113.47 176.945C1114.34 177.815 1170.61 178.305 1171.46 177.45C1171.74 177.178 1170.9 173.89 1169.61 170.142C1167.54 164.095 1167.28 161.584 1167.34 147.828C1167.4 134.256 1167.75 131.022 1170.16 121.828C1173.14 110.439 1178.4 96.8285 1179.82 96.8285C1181.47 96.8285 1183.99 101.836 1189.42 115.903C1195.97 132.891 1200.42 149.88 1201.83 163.328C1202.41 168.828 1203.09 174.34 1203.34 175.578L1203.79 177.828H1229.77H1255.75V164.265C1255.75 136.104 1248.11 97.3865 1237.75 73.0395L1233.37 62.7495L1197.04 62.9775C1177.06 63.1025 1160.5 63.4115 1160.25 63.6635ZM1286.29 63.7945C1286.12 64.0885 1285.04 68.1535 1283.9 72.8285C1280.7 85.8755 1279.19 118.802 1280.71 142.057C1282.3 166.235 1283.28 174.553 1284.77 176.345C1285.83 177.625 1293.99 177.828 1344.31 177.828C1398.99 177.828 1402.65 177.719 1403.12 176.078C1405.92 166.225 1410.62 127.53 1409.4 124.346C1407.59 119.648 1370.64 107.371 1350.75 104.861C1336.3 103.038 1337.59 104.207 1338.3 93.5505C1338.63 88.4785 1339.55 80.3905 1340.33 75.5785C1341.11 70.7655 1341.75 65.9975 1341.75 64.9835C1341.75 63.2335 1340.33 63.1415 1314.18 63.1995C1299.01 63.2325 1286.46 63.5005 1286.29 63.7945ZM1724.01 65.6745C1727.9 69.8965 1733.75 79.3585 1733.75 81.4325C1733.75 84.2705 1722.58 97.3775 1714.68 103.818C1706.46 110.518 1694.96 117.281 1686.69 120.274C1683.43 121.456 1680.25 122.932 1679.63 123.553C1677.09 126.091 1675.03 156.5 1676.4 171.078L1677.04 177.828H1704.3H1731.55L1737.83 173.109C1741.29 170.513 1748.09 164.6 1752.96 159.969C1757.83 155.338 1761.96 151.724 1762.15 151.938C1764.13 154.169 1765.64 159.91 1766.23 167.421C1766.62 172.422 1767.24 176.922 1767.6 177.421C1767.98 177.946 1779.2 178.118 1794.25 177.828C1816.5 177.4 1820.25 177.112 1820.21 175.828C1819.39 147.087 1817.42 129.392 1812.69 108.328C1809.06 92.1355 1799.97 66.3575 1797.13 64.1725C1796.06 63.3455 1785.09 63.0165 1758.59 63.0185L1721.56 63.0205L1724.01 65.6745ZM1851 65.6545C1850.59 67.1255 1850.26 83.4035 1850.27 101.828C1850.28 136.649 1850.32 137.123 1855.46 164.078L1858.08 177.828H1882.85H1907.61L1907.93 175.578C1908.11 174.34 1907.95 169.953 1907.57 165.828C1906.53 154.323 1906.64 146.018 1907.83 145.279C1908.42 144.912 1914.54 143.763 1921.42 142.725C1941.52 139.695 1959.87 134.768 1976.43 127.955L1983.25 125.151L1982.97 112.739C1982.82 105.913 1981.48 92.1695 1980.01 82.1975L1977.32 64.0675L1971.79 63.5725C1968.74 63.2995 1940.49 63.0555 1909 63.0285L1851.75 62.9805L1851 65.6545ZM2014.71 63.5465C2010.6 64.4755 2009.15 132.969 2012.63 162.066C2013.6 170.172 2014.68 177.084 2015.02 177.427C2015.97 178.379 2127.13 177.844 2128.1 176.883C2129.56 175.419 2135.75 152.566 2135.75 148.614V144.828H2124.83C2118.83 144.828 2113.2 144.554 2112.33 144.22C2111.13 143.76 2110 145.216 2107.66 150.204C2104.15 157.705 2100.51 161.234 2094.46 163.005C2089.3 164.514 2076.16 164.247 2068.75 162.482L2063.25 161.173L2063.56 152.75C2064.02 140.466 2066.84 132.512 2072.11 128.655C2076 125.809 2076.65 125.657 2082.75 126.196C2086.33 126.513 2092.17 127.706 2095.74 128.847C2099.32 129.989 2103.22 130.676 2104.43 130.373C2106.89 129.755 2109.74 126.041 2111.75 120.828C2112.49 118.903 2113.92 116.134 2114.93 114.674C2115.93 113.214 2116.75 111.864 2116.75 111.674C2116.75 111.07 2103.63 110.348 2092.75 110.352C2082.69 110.357 2081.95 110.509 2075.04 113.966C2071.08 115.951 2067.63 117.375 2067.39 117.13C2067.14 116.886 2067.78 113.455 2068.8 109.507C2069.81 105.558 2071.61 97.3785 2072.8 91.3285C2073.98 85.2785 2075.41 79.7665 2075.97 79.0785C2077.46 77.2645 2096.99 77.3815 2100.55 79.2265C2105.96 82.0215 2106.97 84.0785 2106.6 91.5115L2106.25 98.3285L2117.25 97.9815C2123.8 97.7745 2128.7 97.1665 2129.36 96.4815C2130.56 95.2395 2135.8 70.0465 2135.77 65.6895L2135.75 63.0515L2076 63.1255C2043.14 63.1655 2015.56 63.3555 2014.71 63.5465ZM2208.77 64.0535C2208.78 64.7545 2211.03 68.1935 2213.77 71.6965C2220.08 79.7675 2220.13 81.7935 2214.21 89.6785C2205.43 101.357 2192.23 111.301 2176.22 118.292C2171.29 120.447 2166.51 122.832 2165.59 123.593C2164.67 124.358 2163.45 127.77 2162.84 131.234C2161.57 138.515 2161.39 174.708 2162.61 176.634C2163.26 177.656 2169.57 177.947 2191.67 177.975C2207.2 177.995 2220.12 177.795 2220.38 177.53C2220.65 177.266 2219.71 173.081 2218.31 168.232C2214.08 153.657 2215 136.909 2221.24 114.827C2223.94 105.264 2227.43 96.8285 2228.68 96.8285C2229.13 96.8285 2231.09 99.8655 2233.02 103.578C2240.94 118.788 2247.94 142.417 2251.38 165.578L2253.2 177.828H2279.35H2305.5L2305.1 168.578C2303.52 132.708 2300.01 111.807 2291.04 84.8505C2286.09 69.9595 2283.56 64.3515 2281.42 63.5295C2280.63 63.2295 2263.97 62.9375 2244.37 62.8815C2216.1 62.7995 2208.76 63.0405 2208.77 64.0535ZM2335.46 63.5415C2333.4 63.8565 2332.79 64.4155 2333.16 65.6495C2333.43 66.5725 2334.61 79.7235 2335.77 94.8725C2337.91 122.914 2337.71 139.507 2334.86 168.328C2334.42 172.728 2334.25 176.666 2334.47 177.078C2334.69 177.491 2345.18 177.828 2357.79 177.828H2380.71L2382.44 175.078C2383.4 173.566 2386.49 169.628 2389.31 166.328C2392.13 163.028 2398.13 155.378 2402.65 149.328C2407.17 143.278 2412.48 136.303 2414.44 133.828C2416.4 131.353 2418.74 127.753 2419.63 125.828L2421.25 122.328L2421.54 133.2C2421.69 139.18 2421.35 147.28 2420.77 151.2C2418.37 167.352 2417.5 176.963 2418.36 177.631C2418.85 178.014 2431.02 178.188 2445.41 178.017L2471.57 177.706L2472.74 171.017C2477.13 146.07 2479.59 115.076 2479.69 83.5215L2479.75 62.7145L2450.5 63.2895L2421.25 63.8645L2421.75 70.0965C2422.03 73.5245 2422.25 80.6035 2422.25 85.8285C2422.25 95.0195 2422.14 95.4895 2418.83 100.264C2412.58 109.257 2391.7 132.828 2389.97 132.828C2389.33 132.828 2389.26 131.472 2389.78 129.078C2390.81 124.364 2392.63 94.6485 2392.98 76.8285L2393.25 63.3285L2365.75 63.2205C2350.63 63.1615 2336.99 63.3055 2335.46 63.5415ZM2515.89 63.5785C2513.76 63.9555 2513.58 64.3715 2514.14 67.6635C2514.48 69.6795 2515.48 78.7535 2516.35 87.8285C2518.18 106.734 2517.8 161.261 2515.78 170.654C2514.33 177.388 2515.11 178.348 2521.92 178.258C2524.85 178.219 2534.95 178.106 2544.35 178.008L2561.45 177.828L2567.57 170.078C2570.93 165.816 2578.54 155.855 2584.47 147.943C2600.1 127.09 2602.7 123.828 2603.67 123.828C2604.15 123.828 2604.18 125.49 2603.72 127.578C2603.27 129.641 2602.4 138.528 2601.78 147.328C2601.17 156.128 2600.25 165.353 2599.75 167.828C2599.25 170.303 2598.82 173.566 2598.8 175.078L2598.75 177.828H2625.69C2650.47 177.828 2652.66 177.689 2653.13 176.078C2653.41 175.115 2654.14 169.828 2654.75 164.328C2655.37 158.828 2656.5 150.053 2657.27 144.828C2659.67 128.58 2661.46 87.4315 2660.79 63.9675C2660.76 62.8435 2655.72 62.6705 2631.83 62.9735C2615.92 63.1745 2602.67 63.5745 2602.39 63.8625C2602.1 64.1505 2602.37 68.8735 2602.99 74.3575C2604.73 89.7185 2604.48 93.1165 2601.25 98.0525C2598.04 102.968 2581.55 123.515 2576.36 129.078C2570.12 135.76 2569.99 135.251 2572.33 113.328C2574.11 96.6835 2575.28 69.0635 2574.36 65.3855L2573.7 62.7745L2545.98 62.9665C2530.73 63.0725 2517.19 63.3475 2515.89 63.5785ZM1103.39 65.8425C1103.1 67.2095 1101.71 74.3475 1100.29 81.7035C1098.87 89.0595 1096.7 97.6095 1095.48 100.703C1093.53 105.629 1092.66 106.61 1088.5 108.597C1085.89 109.845 1083.75 111.42 1083.75 112.097C1083.75 112.774 1081.72 117.259 1079.25 122.063C1076.78 126.868 1074.75 131.255 1074.75 131.813C1074.75 133.345 1080.02 133.03 1082.41 131.355C1083.57 130.545 1085.53 127.003 1086.77 123.485C1088.65 118.159 1089.35 117.172 1090.95 117.59C1093.39 118.229 1098.34 113.612 1099.72 109.413C1100.64 106.592 1102.48 98.2405 1103.26 93.3285C1103.43 92.2285 1104.09 89.0785 1104.73 86.3285C1106.26 79.6955 1106.43 67.8265 1105.03 65.3425C1103.95 63.4375 1103.89 63.4575 1103.39 65.8425ZM1357.03 65.3825C1357.27 66.5125 1356.69 72.8125 1355.75 79.3825C1354.81 85.9535 1354.24 91.6905 1354.49 92.1335C1354.74 92.5765 1355.65 92.8015 1356.52 92.6335C1358.47 92.2555 1360.6 82.8685 1360.69 74.1895C1360.74 69.3395 1360.32 67.5545 1358.68 65.6895C1356.74 63.4875 1356.63 63.4665 1357.03 65.3825ZM2151.75 66.1725C2151.75 71.0085 2145.77 97.8075 2143.72 102.178C2141.17 107.591 2140.33 108.368 2135.76 109.55C2132.83 110.307 2132.16 111.003 2131.63 113.89C2131.28 115.781 2129.38 120.253 2127.4 123.828C2122.72 132.273 2122.73 133.256 2127.44 132.491C2132.18 131.722 2134.26 129.516 2136.01 123.394C2137.29 118.909 2137.78 118.363 2141.34 117.391C2146.56 115.964 2148.85 111.179 2152.19 94.7025C2155.68 77.5205 2156.32 70.6145 2154.77 66.8695C2153.27 63.2495 2151.75 62.8995 2151.75 66.1725ZM2408.57 80.3285C2408.4 89.6785 2408.33 97.4795 2408.42 97.6645C2408.51 97.8485 2409.19 96.9485 2409.92 95.6645C2411.65 92.6345 2411.76 68.2425 2410.06 65.3285C2409.13 63.7365 2408.83 66.7935 2408.57 80.3285ZM2496.19 89.1305C2496.14 112.365 2494.51 136.465 2491.82 153.828C2487.03 184.729 2485.91 188.118 2479.97 189.853C2477.54 190.561 2465.41 190.832 2445 190.633C2427.81 190.465 2413.75 190.484 2413.75 190.674C2413.75 192.415 2417.81 197.102 2420.36 198.312C2425.15 200.586 2478.93 200.539 2484.64 198.256C2490.25 196.013 2490.5 195.211 2494.19 167.721C2498.51 135.535 2501 83.6095 2498.84 70.5295C2497.02 59.4615 2496.25 64.8895 2496.19 89.1305ZM2589.25 80.8265C2589.25 90.0715 2589.57 97.4375 2589.97 97.1955C2591.5 96.2495 2592.74 88.9325 2592.74 80.8285C2592.74 72.7255 2591.5 65.4095 2589.97 64.4595C2589.57 64.2165 2589.25 71.5825 2589.25 80.8265ZM2677.13 90.5795C2676.99 119.943 2674.22 149.483 2669.37 173.305C2667.19 183.981 2666.59 185.587 2663.79 188.082L2660.66 190.881L2627.71 190.604C2602.08 190.389 2594.75 190.603 2594.75 191.562C2594.75 192.241 2596.06 194.266 2597.67 196.062L2600.59 199.328L2630.61 199.632C2665.33 199.985 2668.11 199.6 2670.39 194.143C2673.61 186.452 2678.12 147.272 2679.87 111.828C2681.22 84.5785 2680.36 63.8245 2677.89 63.8295C2677.54 63.8305 2677.2 75.8675 2677.13 90.5795ZM1992.75 65.3725C1992.75 65.6725 1993.42 68.7095 1994.24 72.1225C1996.15 80.0415 1998.65 101.859 1999.43 117.359L2000.04 129.391L1996.98 132.45C1990.87 138.553 1957.98 149.629 1933.75 153.742L1923.25 155.524L1923.6 169.426C1923.92 182.418 1923.8 183.507 1921.79 186.054C1918.23 190.571 1914.69 190.996 1883.5 190.649C1867.69 190.472 1854.75 190.463 1854.75 190.628C1854.75 190.792 1855.46 192.29 1856.32 193.956C1859.11 199.349 1861.91 199.828 1890.7 199.828C1927.87 199.828 1927.35 200.139 1926.52 178.297C1926.15 168.641 1926.33 164.585 1927.13 164.378C1927.75 164.217 1933.6 163.1 1940.13 161.896C1961.42 157.973 1994.37 147.207 1998.88 142.703C2001.31 140.271 2001.41 138.075 1999 139.938C1997.54 141.074 1997.56 140.937 1999.13 139.092C2000.86 137.065 2000.96 135.517 2000.47 119.609C1999.71 95.5055 1998.01 78.4165 1995.62 71.0785C1993.86 65.6755 1992.75 63.4635 1992.75 65.3725ZM641.894 69.8285C641.894 70.6535 642.28 72.2285 642.753 73.3285C643.295 74.5895 643.612 74.7735 643.612 73.8285C643.612 73.0035 643.226 71.4285 642.753 70.3285C642.211 69.0675 641.894 68.8835 641.894 69.8285ZM945.832 72.4115C945.88 73.5765 946.117 73.8135 946.436 73.0165C946.725 72.2945 946.689 71.4315 946.357 71.0995C946.025 70.7675 945.789 71.3575 945.832 72.4115ZM946.832 76.4115C946.88 77.5765 947.117 77.8135 947.436 77.0165C947.725 76.2945 947.689 75.4315 947.357 75.0995C947.025 74.7675 946.789 75.3575 946.832 76.4115ZM643.832 77.4115C643.88 78.5765 644.117 78.8135 644.436 78.0165C644.725 77.2945 644.689 76.4315 644.357 76.0995C644.025 75.7675 643.789 76.3575 643.832 77.4115ZM2204.72 77.6645C2205.38 78.9485 2206.19 79.7255 2206.52 79.3905C2206.86 79.0555 2206.32 78.0045 2205.33 77.0545C2203.6 75.4045 2203.57 75.4315 2204.72 77.6645ZM1155.77 77.5195C1155.78 77.9645 1156.22 79.0035 1156.75 79.8285C1157.59 81.1215 1157.72 81.0945 1157.74 79.6375C1157.75 78.7075 1157.3 77.6685 1156.75 77.3285C1156.2 76.9885 1155.76 77.0745 1155.77 77.5195ZM1718.78 78.0195C1718.77 78.9495 1719.23 80.0075 1719.82 80.3695C1721.58 81.4585 1721.83 80.3105 1720.27 78.2555C1718.99 76.5635 1718.81 76.5345 1718.78 78.0195ZM706.853 80.9995C718.161 89.1495 726.897 101.215 731.794 115.447C734.253 122.596 735.265 137.397 733.871 145.828C732.697 152.923 726.504 166.603 724.036 167.55C721.675 168.456 716.047 164.951 710.053 158.843C698.206 146.771 690.74 124.979 692.056 106.319C693.004 92.8895 697.797 77.8285 701.123 77.8285C701.855 77.8285 704.433 79.2555 706.853 80.9995ZM877.007 97.4925C879.894 103.69 884.753 118.618 884.753 121.289C884.753 123.333 861.936 130.677 859.762 129.334C858.36 128.467 858.519 119.708 860.225 103.828C861.718 89.9215 863.274 80.4115 864.337 78.6915C865.234 77.2415 872.813 88.4895 877.007 97.4925ZM1917.13 82.9555C1922.23 88.9195 1928.13 100.936 1931.14 111.516C1932.58 116.57 1933.75 120.948 1933.75 121.246C1933.75 123.178 1911.9 130.484 1909.21 129.452C1907.52 128.8 1907.32 120.046 1908.72 107.828C1909.2 103.703 1910.15 95.4905 1910.84 89.5785C1911.52 83.6665 1912.42 78.8285 1912.84 78.8285C1913.26 78.8285 1915.19 80.6855 1917.13 82.9555ZM501.095 83.5785C501.423 85.6415 502.004 96.7375 502.384 108.237L503.077 129.146L500.665 128.447C499.338 128.063 495.103 127.067 491.253 126.233C481.289 124.076 480.97 123.597 483.198 114.147C486.18 101.499 492.192 87.6415 497.112 82.0785C499.827 79.0085 500.401 79.2245 501.095 83.5785ZM565.753 80.8835C565.753 81.4635 567.583 84.6335 569.82 87.9275C577.455 99.1695 586.179 120.712 584.317 123.724C583.597 124.89 565.974 128.127 564.153 127.428C561.985 126.596 562.084 79.8285 564.253 79.8285C565.078 79.8285 565.753 80.3035 565.753 80.8835ZM644.911 81.8285C644.911 83.2035 645.138 83.7665 645.415 83.0785C645.693 82.3915 645.693 81.2665 645.415 80.5785C645.138 79.8915 644.911 80.4535 644.911 81.8285ZM948.434 90.8285C948.683 94.4035 949.28 102.278 949.761 108.328C950.599 118.861 950.616 118.682 950.173 104.106C949.918 95.7345 949.32 87.8595 948.845 86.6065C948.275 85.1035 948.135 86.5405 948.434 90.8285ZM1041.07 89.6145C1039.52 90.5975 1037.58 95.7335 1038.3 96.9125C1039.2 98.3605 1044.09 97.9795 1046.53 96.2715C1049.55 94.1555 1049.39 91.0195 1046.19 89.8035C1043.14 88.6445 1042.62 88.6255 1041.07 89.6145ZM2089 90.9825C2088.31 91.6675 2087.75 93.5385 2087.75 95.1395C2087.75 97.9615 2087.87 98.0295 2091.5 97.3505C2096.22 96.4685 2097.93 95.0745 2097.55 92.4165C2097.32 90.8235 2096.42 90.2585 2093.75 90.0325C2091.82 89.8705 2089.68 90.2975 2089 90.9825ZM1045.12 92.3225C1044.8 93.1445 1044.13 93.5635 1043.63 93.2535C1042.58 92.6055 1043.42 90.8285 1044.78 90.8285C1045.28 90.8285 1045.43 91.5005 1045.12 92.3225ZM708.537 104.006C707.942 114.275 709.088 126.31 711.293 132.947C712.208 135.703 713.096 137.816 713.267 137.643C713.437 137.47 712.889 134.267 712.048 130.526C710.876 125.31 710.688 121.036 711.24 112.189L711.961 100.653L714.816 103.99C716.387 105.826 717.67 106.878 717.668 106.328C717.665 105.778 715.718 103.158 713.341 100.506L709.018 95.6845L708.537 104.006ZM1748.05 104.578C1753.29 115.798 1758.75 130.375 1758.75 133.138C1758.75 134.742 1756.87 137.312 1753 140.984C1747.29 146.412 1733.7 155.828 1731.58 155.828C1727.78 155.828 1736.83 106.594 1742.25 97.8305C1743.5 95.8115 1744.51 96.9875 1748.05 104.578ZM1829.12 109.828C1832.52 122.616 1835.73 151.309 1835.93 170.632C1836.07 184.087 1835.15 186.819 1829.5 189.591C1826.02 191.301 1798.22 192.15 1779 191.134C1770.61 190.691 1763.75 190.672 1763.75 191.093C1763.75 191.513 1765.29 193.538 1767.18 195.593L1770.6 199.328H1801.47C1836.43 199.328 1836.75 199.264 1838.73 191.904C1840.93 183.728 1836.09 130.525 1831.77 115.435C1829.96 109.096 1827.6 104.117 1829.12 109.828ZM1352.75 121.28L1358.25 123.499L1358.05 128.913C1357.71 138.231 1347.92 161.828 1344.4 161.828C1342.47 161.828 1339.51 152.372 1338.63 143.402C1336.44 120.992 1336.44 120.91 1337.78 119.296C1339.41 117.334 1344.72 118.037 1352.75 121.28ZM950.323 127.213C949.961 129.624 948.882 132.306 947.925 133.172C942.416 138.158 905.178 150.51 885.753 153.795C882.178 154.399 877.973 155.149 876.408 155.461L873.563 156.029L874.271 168.296C875.119 182.996 874.176 186.779 869.057 189.22C866.197 190.584 861.243 190.828 836.419 190.828C814.372 190.828 806.83 190.52 805.843 189.578C805.122 188.891 805.45 190.158 806.57 192.395C809.335 197.916 810.67 198.818 816.897 199.381C820.719 199.725 821.68 199.592 820.253 198.916C818.433 198.054 818.495 197.962 820.944 197.898C822.424 197.86 823.913 198.278 824.253 198.828C824.593 199.378 825.407 199.821 826.062 199.813C826.778 199.803 826.654 199.41 825.753 198.828C824.928 198.295 824.725 197.852 825.303 197.843C825.88 197.835 826.844 198.319 827.443 198.918C828.184 199.659 835.371 199.898 849.893 199.663C873.096 199.287 874.636 198.94 876.856 193.58C878.02 190.768 877.574 168.875 876.218 162.328C875.793 160.278 875.899 159.759 876.553 160.69C878.532 163.508 885.235 163.665 895.984 161.145C919.235 155.694 946.715 146.313 949.878 142.747C951.092 141.379 951.545 138.625 951.668 131.871C951.759 126.897 951.641 122.828 951.407 122.828C951.172 122.828 950.684 124.801 950.323 127.213ZM1425.45 135.029C1424.78 147.368 1420.64 173.67 1418.22 180.828C1415.62 188.566 1414.09 189.804 1405.71 190.984C1397.32 192.165 1286.86 191.534 1282.9 190.284L1280.54 189.539L1282.99 193.434C1284.56 195.917 1286.68 197.744 1288.85 198.476C1291.29 199.298 1309.73 199.573 1353.93 199.446C1428.24 199.232 1420.1 201.665 1424.25 178.432C1427.32 161.277 1429.15 141.608 1428.51 132.71C1427.69 121.183 1426.13 122.362 1425.45 135.029ZM2318.29 130.828C2318.56 134.953 2319.22 142.828 2319.74 148.328C2321.06 162.307 2320.99 182.209 2319.61 185.233C2317.59 189.67 2313.76 190.538 2293.75 191.093C2283.58 191.375 2269.49 191.318 2262.46 190.967L2249.66 190.328L2250.28 192.828C2251.09 196.073 2253.79 199.029 2255.37 198.419C2256.06 198.156 2256.8 198.478 2257.03 199.134C2257.33 200.049 2257.78 200.039 2258.93 199.09C2260.88 197.477 2265.7 197.35 2273.75 198.699C2280.95 199.905 2309.99 200.114 2316.24 199.005C2319.61 198.408 2320.6 197.625 2322.61 193.989C2324.78 190.055 2324.89 189.188 2323.95 184.004C2323.37 180.882 2322.86 172.928 2322.81 166.328C2322.72 154.59 2320.56 133.794 2318.72 126.828C2318 124.144 2317.9 125.077 2318.29 130.828ZM1183.64 133.578C1181.66 138.657 1181.45 150.875 1183.16 160.706C1184.06 165.864 1185.26 170.814 1185.82 171.706C1186.59 172.927 1186.65 172.71 1186.05 170.828C1185.61 169.453 1185.35 159.891 1185.48 149.578C1185.6 139.266 1185.48 130.828 1185.2 130.828C1184.93 130.828 1184.22 132.066 1183.64 133.578ZM2232.42 134.828C2230.39 149.942 2230.56 154.192 2233.7 168.252L2236.78 182.043L2234.73 185.372C2233.53 187.313 2231.31 189.149 2229.41 189.777C2225.53 191.056 2164.38 191.698 2161 190.495C2157.33 189.187 2158.17 193.109 2162.34 196.773L2165.93 199.926L2199.59 199.627C2236.62 199.298 2236.33 199.347 2239.32 193.044C2240.77 189.984 2240.74 189.288 2238.9 183.535C2234.81 170.727 2234.25 166.644 2234.49 151.328C2234.62 143.078 2234.34 134.978 2233.88 133.328C2233.04 130.377 2233.02 130.402 2232.42 134.828ZM434.125 139.58C436.186 143.566 438.54 145.404 445.799 148.693C458.37 154.39 491.103 162.966 493.834 161.278C495.011 160.55 495.033 156.119 493.863 155.396C493.373 155.093 487.186 153.686 480.113 152.27C466.357 149.514 447.603 143.69 438.782 139.435C435.81 138.001 433.226 136.828 433.04 136.828C432.854 136.828 433.342 138.067 434.125 139.58ZM788.227 145.872C781.824 156.793 776.252 163.444 765.982 172.423C755.965 181.181 740.094 189.593 727.253 192.953C705.773 198.572 669.144 195.066 659.797 186.497C655.978 182.996 656.471 183.922 662.324 191.241C667.323 197.493 673.254 200.173 687.929 202.816C702.889 205.51 713.677 205.394 726.88 202.399C746.505 197.947 761.064 190.177 775.535 176.43C782.918 169.417 792.235 156.739 793.391 152.133C793.739 150.748 793.582 148.177 793.043 146.42C792.464 144.535 792.418 142.264 792.929 140.881C794.734 136.001 792.828 138.025 788.227 145.872ZM626.301 142.406C616.447 146.262 598.863 151.13 588.753 152.8C576.948 154.75 578.145 153.409 577.36 165.559C576.404 180.341 575.444 184.592 572.367 187.669L569.754 190.282L543.269 191.178C527.393 191.716 513.373 191.709 508.268 191.162C499.124 190.182 498.453 190.527 501.384 194.711C504.71 199.46 507.486 199.828 539.971 199.826C580.325 199.824 579.685 200.155 580.448 178.9C581.06 161.861 579.986 163.443 592.311 161.435C603.4 159.628 616.765 156.01 630.186 151.182L638.118 148.328L638.308 143.578C638.543 137.727 638.313 137.705 626.301 142.406ZM1032.43 139.578C1031.29 141.489 1030.67 150.66 1031.63 151.255C1032.21 151.608 1034.94 150.307 1037.7 148.362C1042.6 144.92 1042.77 144.879 1043.98 146.827C1044.67 147.928 1046.23 148.828 1047.46 148.828C1049.82 148.828 1052.23 145.526 1051.42 143.407C1050.45 140.871 1033.67 137.488 1032.43 139.578ZM2080.39 143.468C2079.07 153.068 2079.64 153.619 2085.78 148.687C2089.61 145.606 2089.75 145.576 2092.97 147.139C2095.73 148.481 2096.57 148.523 2098.25 147.408C2099.35 146.68 2100.25 145.255 2100.25 144.242C2100.25 142.041 2091.62 138.985 2085.14 138.889L2081.02 138.828L2080.39 143.468ZM482.003 155.49C481.316 155.768 480.191 155.768 479.503 155.49C478.816 155.213 479.378 154.986 480.753 154.986C482.128 154.986 482.691 155.213 482.003 155.49ZM893.482 155.432C893.15 155.764 892.287 155.8 891.566 155.511C890.768 155.192 891.005 154.955 892.17 154.907C893.224 154.864 893.814 155.1 893.482 155.432ZM1100.5 157.16C1100.09 158.167 1099.75 160.472 1099.75 162.282C1099.75 166.248 1095.43 179.843 1092.54 184.998C1091.39 187.04 1089.28 189.184 1087.85 189.763C1084.7 191.039 967.405 191.746 964.003 190.511C960.532 189.249 961.168 191.869 965.308 195.882L968.864 199.328L1018.56 199.282C1045.89 199.257 1069.6 198.884 1071.25 198.454C1073.47 197.876 1073.86 197.947 1072.75 198.724C1071.04 199.923 1083.99 199.417 1085.95 198.208C1086.62 197.79 1086.78 197.973 1086.35 198.673C1085.48 200.085 1086.21 200.106 1090.9 198.804C1095.33 197.575 1096.97 195.223 1099.71 186.186C1101.45 180.463 1101.77 177.154 1101.54 167.288C1101.38 160.71 1100.92 156.152 1100.5 157.16ZM1664.44 170.144C1665.14 185.545 1664.46 187.781 1658.45 189.764C1654.51 191.062 1593.81 191.762 1589.5 190.559C1585.78 189.518 1585.98 191.016 1590.18 195.593L1593.6 199.328H1627.6C1660.35 199.328 1661.71 199.252 1664.36 197.273C1668.22 194.39 1669.93 189.061 1667.96 186.032C1666.96 184.499 1666.2 179.402 1665.67 170.678C1665.23 163.496 1664.64 157.384 1664.35 157.096C1664.06 156.807 1664.1 162.679 1664.44 170.144ZM2148.9 163.328C2145.57 178.039 2141.08 188.039 2137.06 189.693C2135.14 190.48 2121.68 190.921 2094.5 191.086L2054.76 191.328L2054.75 195.578L2054.75 199.828L2096.5 199.824C2136.53 199.821 2138.39 199.738 2141.54 197.815C2147.67 194.081 2150.99 182.8 2150.54 167.284L2150.25 157.328L2148.9 163.328ZM1575.43 168.828C1575.07 171.853 1574.77 176.263 1574.76 178.628C1574.75 184.802 1572.5 188.527 1568 189.853C1565.53 190.578 1554.27 190.847 1535 190.641C1518.91 190.469 1505.75 190.672 1505.75 191.093C1505.75 191.513 1507.29 193.538 1509.17 195.593L1512.6 199.328L1540.11 199.623C1555.24 199.785 1569.08 199.54 1570.86 199.079C1572.65 198.617 1575.04 196.989 1576.18 195.46C1578.03 192.975 1578.23 191.442 1578.05 181.004C1577.94 174.582 1577.46 167.978 1576.98 166.328C1576.15 163.513 1576.06 163.667 1575.43 168.828ZM2406.75 168.297C2400.29 176.804 2392.63 185.755 2389.73 188.197L2386.53 190.888L2358.64 190.608C2327.74 190.298 2327.51 190.35 2333.82 196.391L2336.88 199.328H2364.28H2391.67L2396.26 194.828C2398.78 192.353 2402.5 187.932 2404.52 185.002C2407.6 180.529 2408.3 178.53 2408.86 172.502C2409.23 168.557 2409.47 165.256 2409.39 165.168C2409.32 165.08 2408.13 166.488 2406.75 168.297ZM2583.21 174.05C2580.49 177.394 2576.68 182.049 2574.75 184.396C2572.83 186.742 2570.13 189.15 2568.75 189.746C2567.21 190.415 2555.81 190.926 2539 191.079C2520.59 191.247 2511.76 191.673 2511.75 192.391C2511.75 192.976 2513.13 194.776 2514.82 196.391L2517.88 199.328H2545.45H2573.01L2579.38 192.328C2582.87 188.478 2586.49 183.753 2587.41 181.828C2589.35 177.783 2590.41 169.35 2589.08 168.53C2588.58 168.222 2585.94 170.707 2583.21 174.05ZM1272.48 170.16C1272.08 171.167 1271.75 174.317 1271.74 177.16C1271.72 183.711 1270.13 186.867 1265.74 189.098C1262.59 190.698 1259.26 190.843 1231.11 190.598L1199.96 190.328L1201.25 192.83C1201.97 194.207 1203.54 196.232 1204.75 197.33C1206.84 199.217 1208.61 199.345 1236.65 199.632C1254.97 199.819 1267.36 199.549 1268.99 198.926C1273.47 197.225 1275.21 193.409 1274.94 185.927C1274.56 175.782 1273.34 167.989 1272.48 170.16ZM1749.69 181.79C1745.6 185.081 1740.9 188.408 1739.25 189.185C1735.64 190.885 1688.93 192.298 1679 191.007C1675.57 190.561 1672.75 190.36 1672.75 190.561C1672.75 192.667 1676.39 196.811 1679.45 198.189C1682.85 199.723 1686.55 199.884 1712.42 199.622L1741.56 199.328L1750.15 193.426L1758.75 187.524L1758.74 182.926C1758.71 175.257 1757.93 175.158 1749.69 181.79ZM1187.77 180.355C1187.75 184.268 1185.3 187.702 1181.35 189.35C1177.31 191.041 1122.84 192.447 1114.5 191.076C1107.58 189.939 1107.15 190.885 1112.31 195.882L1115.86 199.328H1150.06C1181.74 199.328 1184.45 199.191 1186.99 197.469C1191.79 194.214 1192.69 184.798 1188.77 178.828C1188.01 177.669 1187.78 178.017 1187.77 180.355ZM2011 191.237C2010.69 191.736 2012.3 193.886 2014.59 196.013L2018.73 199.882L2033.49 199.605L2048.25 199.328L2048.56 195.121L2048.86 190.914L2030.21 190.621C2019.75 190.457 2011.31 190.727 2011 191.237ZM1694.75 195.724C1694.75 196.833 1684.71 197.04 1682.98 195.967C1682.28 195.536 1684.63 195.107 1688.23 195.007C1691.82 194.909 1694.75 195.231 1694.75 195.724ZM2064.75 195.828C2064.75 196.378 2064.28 196.828 2063.69 196.828C2063.11 196.828 2062.91 196.378 2063.25 195.828C2063.59 195.278 2064.07 194.828 2064.31 194.828C2064.55 194.828 2064.75 195.278 2064.75 195.828ZM2347.25 195.828C2346.91 196.378 2346.01 196.828 2345.25 196.828C2344.49 196.828 2343.59 196.378 2343.25 195.828C2342.9 195.259 2343.76 194.828 2345.25 194.828C2346.74 194.828 2347.6 195.259 2347.25 195.828ZM2272.48 197.432C2272.15 197.764 2271.29 197.8 2270.57 197.511C2269.77 197.192 2270 196.955 2271.17 196.907C2272.22 196.864 2272.81 197.1 2272.48 197.432Z" fill="#CD211D"/>
<path fill-rule="evenodd" clip-rule="evenodd" d="M104.311 2.77375C98.3568 6.97522 87.2818 17.6612 83.2881 23.0579C79.3491 28.3813 75.2921 34.6159 72.8731 39.0612C71.374 41.8158 66.5 50.2099 61.0258 59.4629C57.9747 64.6208 53.4124 70.8918 50.3921 74.08C42.8309 82.0604 35.0803 94.6085 30.29 106.624C25.2671 119.222 20.3971 138.971 19.069 152.13C18.6864 155.922 18.1404 159.622 17.856 160.351L17.3391 161.677L15.7597 160.294C13.2239 158.073 12.3417 158.023 10.77 160.012C8.63241 162.717 6.91237 166.256 6.90423 167.966C6.90016 168.813 6.23494 171.471 5.42609 173.874C4.27124 177.304 3.83165 180.206 3.37924 187.388C2.5826 200.024 1.94297 205.699 0.712528 211.036C-0.523143 216.398 -0.999417 215.802 6.62105 218.44C11.5033 220.13 12.3318 220.249 18.969 220.218L26.0841 220.186L26.7365 222.149C27.7361 225.158 31.0006 230.624 36.0531 237.751C38.5751 241.308 40.637 244.41 40.6353 244.645C40.6335 244.88 38.2913 245.118 35.4309 245.172C20.868 245.449 11.059 252.289 14.1641 260.003C16.7535 266.434 28.9578 274.453 40.3474 277.207C45.4553 278.442 45.6582 278.572 46.1164 280.887C46.6537 283.605 49.093 285.271 54.6934 286.745C61.323 288.49 69.719 288.519 74.6013 286.814C76.4899 286.155 78.6653 285.615 79.434 285.615C80.3272 285.615 83.4184 287.56 87.9813 290.993C102.665 302.04 105.082 303.738 113.034 308.594C123.263 314.841 135.208 321.192 145.161 325.674C149.399 327.583 152.866 329.405 152.866 329.723C152.866 330.041 150.953 333.836 148.614 338.158C143.844 346.974 139.914 357.541 138.891 364.298C138.313 368.124 138.351 369.246 139.142 371.829C139.93 374.401 140.351 374.956 141.904 375.47C151.585 378.671 178.655 367.008 200.164 350.368C205.597 346.165 205.324 346.195 217.281 348.471C221.99 349.367 228.983 350.489 232.821 350.964C236.658 351.44 243.723 352.566 248.521 353.467C262.256 356.047 275.066 357.581 291.551 358.622C300.17 359.166 317.545 356.027 334 350.953C343.135 348.137 344.976 346.996 346.46 343.235C347.811 339.809 347.934 338.13 347.053 335.121C346.179 332.135 344.181 331.321 338.207 331.516C333.6 331.666 333.204 331.578 327.767 329.19C324.659 327.825 322.107 326.549 322.097 326.354C322.068 325.771 323.681 325.356 329.273 324.504C339.226 322.989 346.576 321.311 348.417 320.134C349.591 319.383 350.631 317.999 351.295 316.304C352.991 311.97 352.022 309.731 343.98 299.404C332.226 284.31 324.155 275.379 308.592 260.249C291.678 243.806 276.256 231.563 264.463 225.216C259.954 222.789 253.58 219.124 250.298 217.073C236.366 208.362 233.768 204.323 224.665 177.227C219.602 162.156 217.309 156.731 210.854 144.546C205.673 134.765 204.681 133.539 203.135 135.002C200.608 137.394 145.118 154.414 129.315 157.645C124.518 158.625 120.388 159.606 120.138 159.824C119.592 160.298 123.041 163.363 131.652 170.057C138.986 175.758 138.805 176.41 130.56 174.012C127.956 173.255 122.817 171.85 119.139 170.889C98.8726 165.598 89.3612 162.107 84.7785 158.281C79.7806 154.108 77.4511 147.535 78.5333 140.658C79.0997 137.059 82.3711 130.484 85.0675 127.525L86.8998 125.515L90.3724 127.179C92.282 128.094 98.5545 131.516 104.311 134.783C123.35 145.586 126.117 146.091 126.117 138.754C126.117 135.394 123.55 122.516 121.527 115.725L120.459 112.14L116.298 112.176C111.331 112.218 111.18 111.531 115.832 110.06C119.582 108.874 119.62 108.772 118.296 103.314C117.27 99.0896 116.375 96.3626 115.673 95.3212C115.187 94.6008 114.906 94.6179 113.405 95.4591C111.318 96.6284 110.998 96.6483 110.998 95.6113C110.998 95.1673 111.517 94.5401 112.15 94.2185C114.724 92.9118 114.955 91.3271 113.518 84.8514C112.787 81.559 111.79 75.8103 111.303 72.0761C109.913 61.4304 110.062 55.1654 112.443 24.0232C112.808 19.253 112.616 19.0512 109.468 20.8968C106.966 22.3635 106.962 21.4351 109.461 18.7847C110.534 17.6463 111.676 16.2182 112 15.6115C113.675 12.4652 113.18 2.97673 111.235 0.937506C109.741 -0.629009 108.768 -0.371411 104.311 2.77375ZM98.8494 16.8525C98.5412 17.3832 97.1032 19.4312 95.6535 21.4031C85.5664 35.1267 73.0499 56.6056 69.8365 65.7057C69.2138 67.4703 68.452 69.1532 68.145 69.4444C67.4774 70.0777 64.4793 68.0274 64.4793 66.938C64.4793 65.6258 68.3421 58.1539 72.3398 51.7334C78.8479 41.2819 92.8507 22.1936 97.5247 17.4041C99.2326 15.6539 99.6448 15.4824 98.8494 16.8525ZM92.3908 50.6358C92.3908 50.9386 91.5116 52.1173 90.437 53.2558C87.1149 56.7755 83.1311 62.7057 79.5992 69.3887C75.4956 77.1546 74.7984 77.8545 73.515 75.5009C72.6498 73.9134 72.6695 73.6669 73.8407 71.4627C75.9945 67.4102 83.4858 58.085 89.1304 52.4301C91.4569 50.0991 92.3908 49.585 92.3908 50.6358ZM95.8797 67.0704C95.8797 67.3103 94.6865 68.6137 93.2281 69.9662C91.7691 71.3187 88.7559 74.9576 86.5305 78.0525C84.3057 81.1475 82.1856 83.8553 81.8199 84.0698C81.45 84.2866 80.6836 83.9088 80.0963 83.2209C79.1549 82.1178 79.1287 81.821 79.8579 80.5132C81.1744 78.1502 94.0736 66.6335 95.4029 66.6335C95.6651 66.6335 95.8797 66.8299 95.8797 67.0704ZM93.1374 88.6877C90.648 90.8064 88.2738 92.9162 87.8615 93.3762C86.7997 94.5611 85.5583 94.4133 85.1018 93.0481C84.6017 91.5549 85.396 90.8185 91.0603 87.5222C97.6544 83.6854 98.4749 84.1454 93.1374 88.6877ZM53.7217 88.6971C53.7217 89.5582 53.3461 90.1296 52.7024 90.2471C51.551 90.4572 50.8026 89.1367 51.3318 87.8289C51.8865 86.4582 53.7217 87.1245 53.7217 88.6971ZM78.9514 93.8639C83.0433 100.733 85.2716 110.523 84.2714 117.236C83.9179 119.609 83.0893 121.602 81.3192 124.336C79.9655 126.426 78.3833 128.88 77.8029 129.791C77.2226 130.701 76.0346 133.183 75.163 135.306C73.8186 138.581 73.5761 140.006 73.5668 144.684C73.5569 149.513 73.7499 150.601 75.1176 153.426C75.9765 155.201 77.7616 157.879 79.0845 159.378C80.4074 160.877 81.3396 162.245 81.1564 162.419C80.515 163.028 72.6812 160.381 70.889 158.951C67.5361 156.275 65.4457 150.761 63.0308 138.224C62.2295 134.065 61.1537 129.473 60.6409 128.02C58.2259 121.182 52.097 117.661 47.969 120.742C45.154 122.842 43.9736 125.923 43.6608 131.983C43.4392 136.292 43.2555 137.19 42.8153 136.12C41.9808 134.092 42.0181 125.68 42.8723 123.337C43.2816 122.214 44.5568 120.513 45.7059 119.556C47.7562 117.849 47.8888 117.819 52.7896 118.011L57.7846 118.207L60.1326 111.864C63.4117 103.006 67.3239 96.9324 72.8603 92.1038C76.0259 89.3425 76.3062 89.4236 78.9514 93.8639ZM51.7249 95.8871C52.9332 96.501 53.2414 98.3312 52.2348 98.9208C51.3143 99.4608 48.9535 98.7499 48.5773 97.8193C48.3953 97.3703 48.647 96.6235 49.1361 96.1596C50.1903 95.159 50.2735 95.1507 51.7249 95.8871ZM44.5208 103.37C44.9325 104.387 43.5259 105.447 42.7467 104.708C42.1117 104.105 42.6943 102.487 43.5456 102.487C43.8858 102.487 44.3243 102.884 44.5208 103.37ZM90.7963 118.989C95.1639 120.414 107.509 126.348 111.847 129.107C116.12 131.824 115.91 131.659 115.545 132.005C115.381 132.161 112.263 130.937 108.615 129.285C102.481 126.507 88.9984 122.344 86.1339 122.344C84.4308 122.344 84.2249 121.796 85.146 119.719C86.0706 117.633 86.4805 117.58 90.7963 118.989ZM33.6952 128.152C35.417 139.966 41.7744 148.944 53.556 156.2C64.9811 163.236 75.7455 166.87 101.985 172.55C124.677 177.462 146.7 183.127 154.029 185.937C155.148 186.366 156.559 186.884 157.165 187.088C157.77 187.291 158.125 187.591 157.954 187.754C157.782 187.917 154.147 187.178 149.874 186.112C134.419 182.257 127.841 180.697 109.835 176.623C75.4722 168.846 72.1945 167.983 61.1369 163.786C41.2213 156.227 33.2108 146.269 32.3095 127.954C32.0089 121.833 32.791 121.944 33.6952 128.152ZM58.9854 129.029C59.3738 130.093 60.0006 134.05 60.3786 137.823C60.7566 141.596 61.7108 147.115 62.4987 150.088C64.0158 155.807 63.9536 156.905 62.1644 155.997C60.1565 154.977 58.922 148.922 58.1143 136.134C57.8555 132.038 57.4392 128.219 57.1891 127.647C56.8623 126.899 56.9519 126.675 57.5072 126.851C57.9317 126.985 58.5969 127.965 58.9854 129.029ZM28.3699 143.167C29.2503 155.275 29.7457 158.069 32.3078 165.368C34.8373 172.574 39.4874 181.138 44.5865 187.98C49.8949 195.104 61.4497 206.052 70.0046 212.061C81.4693 220.115 107.254 235.182 129.315 246.721C133.793 249.063 137.705 251.201 138.009 251.473C139.106 252.456 137.026 251.948 132.323 250.084C129.71 249.048 124.3 246.901 120.302 245.312C106.163 239.692 87.9523 230.632 77.272 223.904C71.6752 220.378 66.8343 217.403 66.5145 217.293C66.1947 217.183 69.7359 219.799 74.3832 223.107C96.9619 239.177 122.604 252.23 158.39 265.871C175.078 272.232 208.746 282.857 212.214 282.857C212.514 282.857 212.759 281.964 212.759 280.873C212.759 277.857 214.356 273.287 216.299 270.743C219.356 266.74 224.958 264.114 232.239 263.271C234.912 262.962 235.058 263.003 234.044 263.777C233.437 264.24 231.264 265.147 229.215 265.794C225.773 266.881 221.085 269.702 219.267 271.782C218.848 272.261 217.935 273.769 217.238 275.135C216.055 277.449 215.956 278.568 215.768 291.713C215.571 305.609 216.539 320.709 218.083 327.799C219.181 332.839 222.23 337.984 226.508 342.015L230.46 345.738H228.348C224.984 345.738 217.716 344.253 215.258 343.064C212.461 341.71 208.504 338.119 207.145 335.7C205.42 332.632 205.729 327.875 207.928 323.668C208.948 321.714 209.71 320.046 209.62 319.961C209.53 319.876 208.36 320.558 207.022 321.479L204.587 323.151L202.713 321.449C198.928 318.011 191.33 315.193 184.266 314.607C174.588 313.805 166.748 316.242 160.429 322.016C158.435 323.838 156.427 325.329 155.966 325.329C152.426 325.329 131.901 314.605 113.906 303.352C102.891 296.465 95.9478 291.476 85.5443 282.974L77.0301 276.017L67.4111 276.144C59.0336 276.256 56.9019 276.094 50.8939 274.889C40.9772 272.901 32.8224 269.974 26.5371 266.15C22.6701 263.796 23.0975 263.409 27.4093 265.359C33.1544 267.958 44.1405 271.171 49.4292 271.801C55.8634 272.566 73.8686 272.551 72.4765 271.781C71.9171 271.473 67.6833 270.877 63.0674 270.459C52.1854 269.472 40.3905 266.316 33.6743 262.594C29.7684 260.43 31.7774 260.463 37.9738 262.665C41.0005 263.74 46.0431 265.106 49.1809 265.699C55.7511 266.942 70.8757 267.848 70.8757 266.999C70.8757 266.697 68.7166 266.275 66.0784 266.061C59.9163 265.558 52.9367 264.309 50.1194 263.204C39.9357 259.208 37.9197 257.295 46.8607 260.111C52.6721 261.941 53.7833 262.106 61.7724 262.329C69.9471 262.558 70.3936 262.516 70.1959 261.545C69.8836 260.007 60.224 252.894 54.5544 250.027C49.8507 247.648 49.3257 247.192 45.175 241.878C31.086 223.838 25.4485 209.582 23.1458 186.173C22.1195 175.736 23.0702 155.544 25.2427 141.65C27.0156 130.311 27.4506 130.521 28.3699 143.167ZM206.558 158.225C209.223 163.216 214.083 173.752 217.358 181.64C220.633 189.528 224.385 198.159 225.698 200.82C227.2 203.867 227.88 205.853 227.532 206.182C227.186 206.511 225.601 206.047 223.253 204.929C218.89 202.85 219.998 205.144 212.136 181.916C206.439 165.087 203.722 157.455 201.771 152.799C200.451 149.651 200.148 147.669 201.129 148.6C201.449 148.903 203.892 153.235 206.558 158.225ZM188.817 158.95C200.343 177.496 210.235 197.088 209.017 198.957C208.586 199.618 204.167 198.069 202.503 196.673C201.82 196.099 200.815 194.096 200.271 192.22C197.776 183.617 194.135 174.575 186.405 157.784C185.253 155.281 184.525 153.233 184.787 153.233C185.05 153.233 186.863 155.806 188.817 158.95ZM169.419 164.15C176.994 173.854 180.943 179.361 184.205 184.766C186.158 188.003 187.755 190.828 187.755 191.044C187.755 191.79 182.91 190.82 181.441 189.779C180.496 189.11 178.8 186.181 176.706 181.603C174.912 177.68 171.672 171.305 169.507 167.437C167.342 163.568 165.787 160.414 166.051 160.426C166.315 160.439 167.83 162.114 169.419 164.15ZM158.218 171.436C165.178 178.547 170.31 184.472 170.31 185.392C170.31 186.207 165.561 185.326 163.914 184.205C163.114 183.662 161.216 181.248 159.695 178.843C158.174 176.437 155.492 172.331 153.735 169.719C148.531 161.98 149.226 162.247 158.218 171.436ZM53.895 166.244C53.9904 166.877 53.6671 167.711 53.1757 168.098C51.4033 169.493 49.082 167.292 50.5532 165.61C51.5842 164.432 53.6822 164.829 53.895 166.244ZM143.56 170.912C146.432 173.355 149.439 176.17 150.242 177.17C151.721 179.008 152.112 180.261 151.208 180.261C149.926 180.261 146.62 178.887 145.386 177.84C144.147 176.79 137.165 167.354 137.165 166.729C137.165 165.829 138.973 167.011 143.56 170.912ZM15.9435 168.374C17.7915 169.106 18.7876 170.884 17.3495 170.884C16.3936 170.884 13.5931 169.392 12.7587 168.438C12.1243 167.713 12.1574 167.574 12.9651 167.574C13.4943 167.574 14.8346 167.934 15.9435 168.374ZM48.6744 175.202C48.7948 175.981 48.5523 176.4 47.9818 176.4C46.8508 176.4 46.256 175.476 46.6927 174.397C47.166 173.227 48.4488 173.747 48.6744 175.202ZM62.7348 175.514C62.7348 176.78 61.4805 177.784 60.7566 177.097C60.5653 176.916 60.4088 176.189 60.4088 175.48C60.4088 174.561 60.7409 174.194 61.5718 174.194C62.4109 174.194 62.7348 174.561 62.7348 175.514ZM63.7908 188.944C63.5844 190.645 61.7806 191.347 61.2142 189.948C60.7979 188.919 61.9335 187.432 63.1354 187.432C63.7076 187.432 63.9164 187.913 63.7908 188.944ZM161.465 194.368C194.121 202.008 210.657 206.743 227.201 213.19C257.742 225.092 277.722 237.571 300.266 258.825C310.384 268.363 323.824 282.627 323.824 283.825C323.824 284.242 316.71 277.714 310.52 271.618C306.941 268.093 297.835 260.455 286.027 251.075C272.351 240.212 253.182 228.574 241.918 224.298C230.863 220.1 175.774 201.601 153.447 194.588C144.414 191.751 140.43 190.278 141.694 190.243C142.746 190.213 151.643 192.07 161.465 194.368ZM41.0092 197.085C40.5091 198.321 41.2371 199.644 42.3106 199.451C42.8484 199.354 43.334 198.631 43.4386 197.769C43.584 196.576 43.3828 196.257 42.4833 196.257C41.857 196.257 41.1935 196.629 41.0092 197.085ZM121.93 199.125C122.96 200.102 122.781 201.105 121.456 201.778C120.469 202.279 120.204 202.173 119.778 201.108C119.47 200.335 119.502 199.574 119.859 199.153C120.591 198.291 121.045 198.285 121.93 199.125ZM18.9841 204.863C20.6757 205.184 22.5184 207.489 21.5415 208.062C21.2967 208.206 19.1655 207.842 16.8053 207.254C14.4456 206.667 11.9237 206.186 11.2014 206.186C10.4786 206.186 9.73434 205.95 9.54652 205.662C9.35172 205.362 10.642 205.053 12.565 204.939C14.413 204.829 16.2191 204.693 16.5791 204.635C16.939 204.578 18.0211 204.68 18.9841 204.863ZM114.939 207.045C115.675 207.533 116.232 208.483 116.232 209.251C116.232 210.825 114.36 212.805 112.873 212.805C111.021 212.805 109.254 211.193 109.254 209.504C109.254 206.526 112.225 205.241 114.939 207.045ZM156.831 207.421C156.621 208.82 154.705 209.43 153.986 208.327C153.373 207.386 154.436 206.186 155.885 206.186C156.725 206.186 156.969 206.505 156.831 207.421ZM40.4446 207.657C39.5973 208.46 40.1369 209.008 41.611 208.842C43.6137 208.618 44.1492 207.289 42.2373 207.289C41.4645 207.289 40.6574 207.454 40.4446 207.657ZM122.893 209.133C124.154 210.008 123.776 212.481 122.3 213.018C119.995 213.857 118.059 210.741 119.837 209.054C120.742 208.196 121.573 208.218 122.893 209.133ZM16.7238 212.757C23.2261 213.771 24.5338 214.358 24.196 216.114C23.9494 217.394 20.2436 216.847 13.7443 214.572C8.41783 212.708 6.7542 211.686 9.09238 211.714C9.65235 211.721 13.086 212.19 16.7238 212.757ZM52.6489 216.02C51.5231 217.2 51.3864 219.47 52.3843 220.417C52.7681 220.781 53.8054 221.079 54.6899 221.079C57.4828 221.079 58.5487 217.424 56.2087 215.87C54.5346 214.757 53.8246 214.787 52.6489 216.02ZM231.942 231.276C233.057 232.55 232.208 233.765 230.204 233.765C228.349 233.765 227.491 232.759 228.088 231.283C228.519 230.217 231.012 230.213 231.942 231.276ZM245.014 235.85C245.464 236.963 243.707 238.73 242.151 238.73C240.525 238.73 239.508 237.725 239.508 236.119C239.508 233.738 244.069 233.515 245.014 235.85ZM189.176 239.798C190.419 241.101 189.924 242.039 187.993 242.039C186.465 242.039 185.668 240.923 186.221 239.557C186.682 238.417 187.957 238.521 189.176 239.798ZM234.251 242.288C235.445 243.653 234.743 245.073 232.876 245.073C230.791 245.073 229.646 243.617 230.745 242.361C231.7 241.27 233.33 241.236 234.251 242.288ZM181.37 248.128C182.715 250.51 180.764 252.441 178.154 251.313C176.475 250.587 176.307 249.44 177.669 248.012C178.94 246.681 180.583 246.732 181.37 248.128ZM95.6302 250.628C94.576 251.629 94.4551 253.231 95.3186 254.762C96.1943 256.314 99.5989 256.215 100.789 254.603C101.986 252.983 101.931 252.192 100.532 250.865C99.1378 249.542 96.8892 249.434 95.6302 250.628ZM105.394 254.45C104.879 255.721 105.645 257.035 106.781 256.83C107.397 256.72 107.873 256.048 107.984 255.134C108.133 253.912 107.935 253.623 106.948 253.623C106.277 253.623 105.578 253.995 105.394 254.45ZM195.292 259.099C196.131 260.587 195.425 261.99 193.938 261.788C192.39 261.577 192.056 260.101 193.291 258.929C194.481 257.802 194.564 257.809 195.292 259.099ZM100.161 259.966C99.6466 261.236 100.368 262.448 101.637 262.448C103.048 262.448 103.91 260.312 102.774 259.629C101.578 258.911 100.533 259.045 100.161 259.966ZM284.759 260.596C286.042 262.771 283.468 265.022 280.939 263.936C279.511 263.323 279.189 261.432 280.328 260.352C281.344 259.388 284.137 259.542 284.759 260.596ZM274.908 262.395C275.947 263.019 275.233 264.103 273.781 264.103C272.689 264.103 272.25 263.014 273.04 262.264C273.547 261.783 273.935 261.81 274.908 262.395ZM278.933 268.074C280.525 269.585 279.062 271.562 276.868 270.862C275.541 270.438 276.433 267.412 277.886 267.412C278.078 267.412 278.549 267.71 278.933 268.074ZM236.778 271.687C235.59 273.432 232.491 276.969 229.891 279.547C227.291 282.126 224.401 285.539 223.468 287.131C222.535 288.723 221.511 289.945 221.191 289.845C220.336 289.58 220.159 283.763 220.902 280.366C221.659 276.907 224.174 273.364 226.849 271.992C230.159 270.292 235.078 268.645 237.042 268.579L238.938 268.515L236.778 271.687ZM139.637 273.883C139.237 274.015 138.91 274.723 138.91 275.456C138.91 276.51 139.214 276.789 140.364 276.789C141.509 276.789 141.817 276.51 141.817 275.469C141.817 274.112 140.918 273.459 139.637 273.883ZM149.17 277.616C147.288 279.401 148.701 282.857 151.313 282.857C152.467 282.857 154.61 280.954 154.61 279.928C154.61 277.679 150.807 276.063 149.17 277.616ZM242.997 278.2C242.997 278.977 242.71 281.366 242.359 283.51C241.888 286.389 241.897 288.55 242.394 291.772C242.967 295.49 242.92 296.759 242.076 300.358C240.872 305.489 241.249 315.319 242.924 322.48C243.733 325.939 243.826 327.14 243.302 327.331C242.919 327.47 240.157 327.078 237.164 326.458C231.685 325.324 224.49 322.051 222.201 319.653C220.924 318.315 220.516 311.131 221.408 305.682C222.9 296.57 226.159 290.507 233.339 283.487C239.993 276.981 242.997 275.336 242.997 278.2ZM293.877 279.199C300.31 280.519 302.653 282.479 306.491 289.752C309.272 295.022 312.392 299.956 312.943 299.956C313.222 299.956 313.856 298.978 314.351 297.781C314.846 296.585 315.637 295.467 316.107 295.295C317.783 294.686 321.225 297.281 324.796 301.846C328.41 306.467 328.712 306.684 335.744 309.693L338.07 310.689L334.581 310.881C332.662 310.987 326.963 310.65 321.916 310.132C310.09 308.918 299.927 309.26 290.679 311.18C276.129 314.201 270.818 317.255 268.255 324.07C267.192 326.897 267.212 334.011 268.291 336.913C268.771 338.202 269.164 339.707 269.164 340.256C269.164 341.219 269.027 341.219 265.432 340.274C258.799 338.529 253.302 334.323 250.293 328.691C247.337 323.157 246.227 318.008 246.241 309.885C246.251 303.395 246.428 302.013 247.618 299.129C250.108 293.093 253.883 289.117 260.752 285.299C269.989 280.164 285.059 277.389 293.877 279.199ZM284.282 280.632C282.523 281.216 279.907 281.995 278.467 282.361C276.061 282.975 275.968 283.061 277.304 283.439C278.104 283.665 279.593 283.874 280.614 283.905C283.137 283.98 283.379 284.625 281.91 287.355C280.768 289.479 280.72 289.946 281.359 292.657C281.745 294.291 281.931 295.751 281.774 295.9C281.616 296.05 280.415 295.653 279.105 295.019C277.795 294.385 276.723 294.11 276.723 294.408C276.723 295.088 282.747 298.949 285.363 299.947C288.234 301.041 293.536 300.889 296.246 299.634C298.35 298.66 298.514 298.42 298.347 296.581C298.046 293.284 299.597 293.427 301.656 296.888C303.269 299.599 306.221 302.496 306.805 301.942C306.942 301.813 306.665 301.127 306.19 300.418C305.715 299.709 304.629 296.522 303.775 293.337C301.747 285.769 300.463 283.653 296.67 281.634C292.717 279.53 288.6 279.197 284.282 280.632ZM238.441 281.411C235.395 283.542 229.967 289.727 228.29 292.975C225.57 298.243 223.226 305.662 223.226 309.001C223.226 310.7 223.456 312.091 223.736 312.091C224.018 312.091 224.541 310.223 224.898 307.939C225.257 305.656 226.329 301.871 227.282 299.527C229.215 294.778 234.621 286.618 238.291 282.914C241.055 280.122 241.113 279.54 238.441 281.411ZM140.117 285.84C139.02 287.094 139.891 288.924 141.584 288.924C143.222 288.924 144.028 287.543 143.156 286.229C142.352 285.017 140.989 284.843 140.117 285.84ZM265.896 289.174C265.415 290.361 266.142 291.131 267.744 291.131C268.871 291.131 269.164 290.846 269.164 289.752C269.164 288.644 268.874 288.373 267.692 288.373C266.882 288.373 266.074 288.733 265.896 289.174ZM286.225 292.18C286.627 294.617 287.322 294.973 291.696 294.983C294.496 294.99 295.331 295.177 295.331 295.8C295.331 297.451 290.956 298.322 287.312 297.396C285.601 296.961 284.282 294.527 284.282 291.801C284.282 288.066 285.589 288.32 286.225 292.18ZM295.238 289.593C296.348 289.588 296.537 289.805 296.263 290.772C296.079 291.425 295.924 292.33 295.919 292.785C295.905 294.112 291.846 294.089 290.157 292.753L288.763 291.65L290.144 290.256C291.126 289.264 291.865 288.968 292.701 289.231C293.348 289.435 294.489 289.597 295.238 289.593ZM184.475 291.962C184.27 292.469 184.508 293.251 185.014 293.731C186.249 294.902 187.887 294.231 187.65 292.65C187.421 291.118 185.026 290.599 184.475 291.962ZM266.859 294.954C266.404 295.761 266.485 296.233 267.197 296.909C268.308 297.963 269.378 297.756 269.648 296.436C269.849 295.455 268.805 293.889 267.95 293.889C267.68 293.889 267.189 294.368 266.859 294.954ZM193.199 295.268C192.688 296.529 193.403 297.75 194.653 297.75C195.756 297.75 196.477 296.751 196.477 295.222C196.477 294.164 193.629 294.203 193.199 295.268ZM256.494 295.931C251.035 303.203 256.829 313.769 266.256 313.734C269.467 313.723 269.365 312.761 266.086 312.115C261.826 311.276 259.285 309.607 257.679 306.592C256.128 303.678 255.998 300.312 257.316 297.187C258.471 294.447 258.069 293.832 256.494 295.931ZM262.194 296.091C261.23 296.655 261.86 298.301 263.04 298.301C263.53 298.301 263.93 298.198 263.93 298.071C263.93 297.944 264.076 297.479 264.254 297.039C264.64 296.087 263.273 295.458 262.194 296.091ZM316.672 298.715C316.877 299.246 317.523 300.272 318.108 300.996C318.693 301.72 319.172 302.898 319.172 303.616C319.172 305.24 320.548 305.33 321.691 303.781C322.872 302.183 322.272 300.672 319.833 299.099C317.345 297.496 316.147 297.35 316.672 298.715ZM182.311 302.99C181.772 304.323 182.543 305.472 183.975 305.472C184.706 305.472 185.455 305.1 185.64 304.645C186.179 303.311 185.408 302.162 183.975 302.162C183.244 302.162 182.495 302.535 182.311 302.99ZM197.447 304.737C197.233 304.939 197.059 305.559 197.059 306.116C197.059 306.812 197.489 307.127 198.442 307.127C199.99 307.127 201.429 305.826 200.854 304.945C200.439 304.306 198.054 304.16 197.447 304.737ZM311.903 314.038C315.101 314.211 320.073 314.594 322.951 314.889C329.487 315.559 338.211 315.673 342.506 315.142C346.483 314.652 347.629 315.562 344.564 316.777C342.68 317.523 326.235 320.238 311.202 322.284C297.33 324.171 291.838 326.442 281.084 334.736C275.98 338.673 274.713 339.327 273.952 338.418C272.673 336.887 271.959 333.311 272.165 329.455C272.612 321.053 276.864 318.277 294.168 315.083C295.287 314.877 297.642 314.386 299.401 313.992C301.16 313.599 303.384 313.377 304.344 313.499C305.303 313.622 308.705 313.864 311.903 314.038ZM294.458 316.536C291.9 317.074 288.966 317.535 287.938 317.561C284.993 317.634 280.123 319.703 277.741 321.893C276.542 322.996 275.56 324.145 275.56 324.446C275.56 324.747 276.41 324.219 277.45 323.272C279.841 321.094 281.997 320.313 292.423 317.848C297.061 316.751 300.964 315.752 301.097 315.628C301.532 315.22 299.198 315.54 294.458 316.536ZM203.13 325.743C202.882 326.274 202.527 328.991 202.341 331.782L202.002 336.855L198.513 339.427C190.881 345.052 165.992 355.08 157.518 355.944L154.319 356.271L156.355 355.383C157.474 354.894 161.216 353.611 164.672 352.532C172.558 350.067 184.42 344.527 189.936 340.732C193.818 338.06 195.214 336.633 193.425 337.162C193.025 337.281 190.604 338.017 188.046 338.798C179.915 341.282 170.876 342.979 164.205 343.275C157.638 343.567 157.138 342.936 163.333 342.175C166.936 341.731 174.406 340.121 180.486 338.476C184.848 337.296 198.222 331.501 198.222 330.79C198.222 330.556 197.372 330.475 196.332 330.612C195.292 330.75 191.695 331.242 188.337 331.707C170.937 334.112 162.847 334.537 161.908 333.096C161.749 332.852 164.79 332.352 168.664 331.984C179.668 330.939 190.336 328.751 201.129 325.326C203.326 324.629 203.62 324.69 203.13 325.743ZM225.872 326.957C227.076 328.099 234.346 330.249 238.977 330.833C244.875 331.577 245.904 331.842 245.904 332.62C245.904 333.523 234.281 332.712 228.85 331.43C223.674 330.209 222.644 329.597 222.644 327.744C222.644 326.743 222.961 326.432 223.982 326.432C224.717 326.432 225.568 326.668 225.872 326.957ZM314.577 327.897C315.901 328.4 319.631 330.262 322.866 332.034C326.101 333.807 328.931 335.258 329.155 335.258C329.379 335.258 330.279 335.516 331.155 335.832C332.577 336.345 332.654 336.496 331.867 337.242C330.319 338.71 325.155 338.83 320.996 337.496C316.34 336 303.472 329.912 303.472 329.204C303.472 328.208 306.666 327.028 309.42 327.006C310.933 326.994 313.253 327.395 314.577 327.897ZM236.6 336.934C239.319 337.215 243.723 337.449 246.388 337.454C249.905 337.461 251.171 337.646 251.001 338.128C250.58 339.325 246.905 339.775 239.116 339.583C232.47 339.42 231.237 339.244 229.846 338.258C227.374 336.506 227.307 335.56 229.69 336.033C230.772 336.247 233.882 336.653 236.6 336.934ZM342.714 337.451C343.358 338.44 341.841 342.355 340.397 343.433C339.613 344.018 336.675 345.161 333.869 345.973C331.063 346.785 325.53 348.442 321.573 349.656C316.663 351.162 313.619 351.804 311.979 351.678C309.32 351.473 309.72 351.199 314.52 349.937C316.279 349.474 318.222 348.746 318.839 348.318C319.804 347.648 319.419 347.646 316.058 348.301C313.913 348.72 309.912 349.68 307.168 350.434C296.766 353.293 283.867 351.299 278.445 345.992L276.526 344.114L278.677 342.19C281.851 339.35 283.547 339.261 290.995 341.542C302.475 345.057 307.045 345.86 315.159 345.788C321.616 345.731 323.083 345.532 327.513 344.112C333.307 342.254 337.741 340.092 339.595 338.219C340.96 336.841 342.129 336.554 342.714 337.451ZM203.875 338.154C205.412 340.037 205.215 340.888 202.734 343.072C192.23 352.32 173.46 363.745 161.069 368.433C155.852 370.406 153.504 370.25 158.16 368.238C162.967 366.161 173.657 360.48 178.595 357.378C184.99 353.362 189.688 349.583 196.235 343.189C199.459 340.041 202.371 337.464 202.705 337.464C203.04 337.464 203.566 337.775 203.875 338.154ZM258.115 342.994C258.115 345.19 239.313 347.12 237.973 345.061C237.333 344.081 239.131 343.55 243.287 343.492C245.526 343.461 248.666 343.242 250.265 343.005C254.618 342.362 258.115 342.357 258.115 342.994ZM271.49 346.594C271.49 348.119 267.48 349.178 260.587 349.473C256.485 349.648 254.045 349.551 254.045 349.21C254.045 348.365 264.416 345.851 268.146 345.791C270.803 345.749 271.49 345.913 271.49 346.594Z" fill="#113861"/>
<path fill-rule="evenodd" clip-rule="evenodd" d="M1602.95 253.338C1600.4 261.415 1600.65 262.527 1605.51 264.855C1613.53 268.692 1618.44 269.382 1624.72 267.557C1629.9 266.05 1638.26 260.112 1638.26 257.94C1638.26 257.485 1636.24 258.009 1633.76 259.106C1625.84 262.609 1615.1 259.336 1608.97 251.547C1607.43 249.596 1605.83 248 1605.4 248C1604.98 248 1603.87 250.402 1602.95 253.338ZM598.267 274.133C587.594 276.998 579.747 281.467 572.21 288.973C563.338 297.809 559.263 307.398 559.263 319.437C559.263 329.383 569.136 353.239 574.43 356.085C575.347 356.578 580.602 357.855 586.108 358.922C595.35 360.714 596.759 360.752 604.441 359.419C618.621 356.959 624.51 354.508 634.955 346.719C651.307 334.526 658.663 314.474 653.732 295.542C651.768 288.002 646.571 278.248 643.417 276.182C636.843 271.874 611.046 270.703 598.267 274.133ZM1490.27 274.062C1479.54 277.044 1471.73 281.537 1464.1 289.125C1456.46 296.728 1454.84 299.461 1452.78 308.2C1450.79 316.643 1450.91 321.959 1453.3 331.5C1455.43 339.976 1463.18 354.341 1466.63 356.192C1470.6 358.323 1488.61 360.812 1494.26 360.008C1507 358.197 1512.55 356.135 1522.86 349.382C1532.23 343.246 1539.16 335.434 1543.63 326C1546.52 319.879 1546.71 318.8 1546.73 307.5C1546.75 296.013 1546.61 295.204 1543.49 288.569C1536.67 274.08 1534.69 273.072 1511.76 272.394C1499.8 272.04 1496.67 272.282 1490.27 274.062ZM776.763 275.986C728.509 276.492 727.766 276.53 727.981 278.5C730.139 298.281 730.449 306.156 729.91 327.489C729.577 340.695 729.182 352.625 729.033 354L728.763 356.5L742.763 356.803C750.463 356.969 758.59 356.842 760.823 356.52L764.883 355.934L767.284 335.217C768.605 323.823 769.848 307.847 770.047 299.715L770.408 284.929L780.086 285.215L789.763 285.5L790.062 298.5C790.391 312.804 788.886 338.759 787.149 348.731C786.539 352.239 786.351 355.422 786.732 355.805C787.114 356.187 795.405 356.648 805.157 356.828C819.014 357.085 823.118 356.866 823.938 355.828C824.896 354.616 827.194 337.521 829.292 316C830.489 303.721 830.449 279.216 829.228 276.934C828.658 275.87 827.646 275.106 826.978 275.236C826.31 275.365 803.713 275.703 776.763 275.986ZM885.264 275.73C885.264 275.856 887.061 278.331 889.259 281.23C891.456 284.128 893.256 287.094 893.259 287.82C893.266 289.989 887.629 297.508 882.826 301.735C877.643 306.298 863.875 314.525 858.464 316.293C854.993 317.427 854.681 317.875 853.447 323.501C852.128 329.514 851.629 354.701 852.806 355.875C853.15 356.219 861.64 356.5 871.672 356.5C889.846 356.5 889.927 356.49 894.019 353.781C896.278 352.285 901.4 347.916 905.401 344.07C909.402 340.225 912.814 337.218 912.984 337.388C913.744 338.147 916.263 349.386 916.263 352.014C916.263 353.873 916.964 355.305 918.197 355.965C920.655 357.28 948.266 357.33 951.698 356.025C954.07 355.123 954.263 354.584 954.263 348.857C954.263 345.451 953.849 339.927 953.344 336.582C952.839 333.237 951.903 326.675 951.265 322C949.558 309.489 942.887 285.918 939.095 279L937.177 275.5H911.221C896.946 275.5 885.265 275.603 885.264 275.73ZM974.716 284.786C973.61 299.531 974.934 326.71 977.502 341.991L979.768 355.481L982.766 356.122C986.856 356.997 1010.17 356.97 1013.26 356.088C1015.55 355.435 1015.72 354.996 1015.29 350.937C1015.03 348.497 1014.8 343.608 1014.79 340.074L1014.76 333.647L1030.26 330.423C1038.79 328.65 1049.14 325.999 1053.26 324.531C1057.39 323.063 1062.21 321.427 1063.98 320.894C1065.74 320.362 1067.41 319.579 1067.67 319.154C1069.33 316.469 1066.5 282.188 1064.28 278.034C1063.23 276.079 1062.23 275.994 1038.48 275.851C1024.88 275.769 1005.14 275.596 994.598 275.466L975.432 275.229L974.716 284.786ZM1145.51 275.749C1132.18 275.907 1121.27 276.365 1121.27 276.768C1121.28 277.171 1122.85 279.476 1124.77 281.891C1126.69 284.306 1128.26 286.805 1128.26 287.445C1128.26 289.584 1122.65 297.458 1118.39 301.285C1113.44 305.733 1106.49 310.148 1096.79 315C1090.03 318.384 1089.76 318.666 1088.52 323.5C1086.65 330.823 1085.64 354.499 1087.16 355.436C1088.84 356.477 1118.15 357.432 1122.62 356.593C1126.43 355.878 1140.1 345.784 1145.49 339.703C1146.99 338.01 1148.53 336.933 1148.9 337.309C1149.28 337.685 1150.05 341.984 1150.62 346.863L1151.65 355.733L1159.71 356.361C1164.14 356.706 1172.38 356.991 1178.01 356.994L1188.26 357V348.606C1188.26 329.509 1184.47 307.261 1178.16 289.344C1174.28 278.331 1172.55 274.935 1170.99 275.231C1170.31 275.359 1158.85 275.592 1145.51 275.749ZM1244.26 275.403C1244.26 275.743 1245.84 278.261 1247.76 281C1249.69 283.739 1251.26 286.691 1251.26 287.562C1251.26 293.666 1236.87 308.373 1224.79 314.607C1217.05 318.603 1216.81 318.847 1215.57 323.607C1214.87 326.298 1214.29 331.961 1214.28 336.191C1214.26 344.793 1213.78 345.481 1208.06 345.143C1203.66 344.884 1203.77 344.391 1205.74 356C1207.69 367.49 1209.11 372.261 1211.03 373.75C1211.92 374.438 1215.03 375 1217.95 375H1223.26V370.96C1223.26 366.316 1226.37 359.547 1229.2 358.033C1230.41 357.385 1242.9 357 1262.74 357H1294.35L1296.81 359.455C1298.49 361.14 1299.29 363.099 1299.36 365.705C1299.6 374.886 1299.43 374.526 1303.4 374.22C1305.41 374.067 1308.92 374.363 1311.22 374.878C1316.09 375.974 1315.6 376.721 1319.65 361.949C1323.38 348.314 1323.1 345.956 1317.87 346.929C1317.38 347.021 1315.75 346.826 1314.25 346.496C1311.52 345.898 1311.51 345.856 1310.8 334.698C1309.9 320.472 1306.4 303.867 1301.01 288.25L1296.78 276H1272.11C1258.53 276 1246.72 275.727 1245.85 275.393C1244.98 275.059 1244.26 275.064 1244.26 275.403ZM473.263 276.629C473.263 276.975 474.838 279.001 476.763 281.132C481.423 286.29 481.352 289.443 476.436 295.662C470.358 303.351 462.442 309.888 454.173 314.045C449.963 316.162 446.235 318.631 445.889 319.532C445.543 320.433 445.016 323.719 444.718 326.835C443.751 336.94 442.039 344.05 440.357 344.95C439.468 345.425 437.45 345.567 435.871 345.265L433 344.717L433.709 351.608C434.6 360.258 438.005 372.103 440.075 373.75C440.938 374.438 444.034 375 446.954 375C452.404 375 452.664 374.773 452.313 370.33C452.11 367.769 455.865 360.033 458.159 358.285C459.342 357.384 468.031 357.057 491.263 357.037L522.763 357.01L525.763 359.411C528.505 361.605 528.763 362.334 528.758 367.881L528.752 373.951L533.258 374.506C535.736 374.811 539.19 375.238 540.935 375.455C544.835 375.939 544.006 377.725 550.183 355.54C551.249 351.711 551.901 348.224 551.633 347.79C551.365 347.355 549.404 347 547.275 347C545.147 347 542.799 346.394 542.058 345.652C541.214 344.808 540.235 339.262 539.437 330.801C537.775 313.177 533.388 295.126 527.515 281.75L524.99 276H499.126C484.902 276 473.263 276.283 473.263 276.629ZM1335.89 277.528C1335.61 278.248 1336.08 283.936 1336.92 290.169C1338.13 299.078 1338.32 306.737 1337.82 326C1337.47 339.475 1337.09 351.85 1336.97 353.5L1336.76 356.5L1348.76 356.812C1355.36 356.983 1363.51 356.842 1366.87 356.498C1372.66 355.904 1372.97 355.734 1373 353.186C1373.02 351.709 1373.76 344.425 1374.64 337C1375.52 329.575 1376.25 321.925 1376.26 320C1376.27 318.075 1376.74 314.813 1377.32 312.75C1378.22 309.502 1378.75 309 1381.3 309C1382.92 309 1387.22 310.194 1390.87 311.653L1397.49 314.305L1396.95 326.403C1396.66 333.056 1395.91 342.057 1395.29 346.405C1394.67 350.754 1394.4 354.916 1394.68 355.655C1395.4 357.524 1429.12 357.61 1431.44 355.75C1433.94 353.752 1437.76 316.729 1437.76 294.5V276.5L1417.46 276.229L1397.15 275.958L1397.57 289.479C1397.8 296.916 1397.6 303 1397.13 303C1396.65 303 1393.41 301.65 1389.92 300C1386.43 298.35 1382.65 297 1381.52 297C1378.85 297 1378.27 295.237 1378.25 287.168C1378.24 283.501 1377.96 279.466 1377.62 278.202L1377 275.904L1356.7 276.062C1341.01 276.184 1336.28 276.517 1335.89 277.528ZM1567.6 282.25C1569.76 303.989 1570.28 319.842 1569.34 334.753C1568.79 343.516 1567.9 351.825 1567.37 353.217C1566.44 355.654 1566.58 355.771 1570.98 356.374C1573.49 356.718 1580.68 357 1586.95 357C1600.47 357 1597.55 359.18 1616.02 335.25C1622.92 326.313 1629 319 1629.53 319C1630.61 319 1630.04 326.427 1627.65 343.339C1626.81 349.301 1626.33 354.723 1626.58 355.388C1627.28 357.21 1661.17 357.601 1663.41 355.813C1664.83 354.687 1666.92 342.706 1667.39 333C1667.44 332.175 1668.1 326.809 1668.86 321.076C1670.26 310.645 1670.77 282.488 1669.63 278.25C1669.03 276.013 1668.92 276 1649.22 276H1629.4L1629.92 286.75L1630.44 297.5L1625.53 304.131C1619.27 312.598 1608.26 325 1607.01 325C1606.45 325 1606.29 322.654 1606.64 319.25C1606.95 316.087 1607.52 305.063 1607.89 294.75L1608.56 276H1587.77H1566.99L1567.6 282.25ZM604.899 288.851C613.995 295.441 620.226 306.756 622.696 321.175C623.572 326.288 621.738 336.678 618.777 343.373C615.616 350.52 613.199 350.826 606.766 344.896C599.443 338.146 596.68 333.015 593.735 320.698L591.062 309.52L592.787 300.51C595.676 285.416 597.6 283.564 604.899 288.851ZM1025.05 293.25C1029.3 300.694 1034.49 314.819 1033.54 316.361C1032.53 317.998 1024.75 320.869 1019.43 321.574L1014.1 322.279L1014.64 317.89C1014.94 315.475 1015.44 310.575 1015.76 307C1016.31 300.843 1018 289.966 1018.82 287.25C1019.57 284.771 1020.98 286.123 1025.05 293.25ZM1497.68 289.755C1511.69 300.426 1518.09 322.78 1512.13 340.246C1509.49 347.984 1508.7 349 1505.35 349C1501.03 349 1491.1 337.599 1487.93 329C1484.94 320.906 1483.14 311.001 1483.77 306.147C1485.4 293.631 1488.23 285.995 1491.23 286.005C1492.07 286.008 1494.97 287.695 1497.68 289.755ZM902.163 301.25C907.439 314.058 910.201 321.86 910.23 324.038C910.266 326.826 903.772 333.746 896.781 338.367C891.289 341.998 890.263 341.781 890.263 336.984C890.263 327.432 897.748 298 900.177 298C900.533 298 901.427 299.462 902.163 301.25ZM1264.38 312.567C1269.17 325.267 1273.62 344.042 1272.19 345.474C1270.99 346.672 1260.63 346.621 1253.79 345.384L1248.82 344.484L1248.55 338.013C1248.25 330.722 1250.68 315.023 1252.74 311.051C1253.48 309.61 1254.41 306.646 1254.81 304.465C1256.5 295.082 1258.39 296.684 1264.38 312.567ZM492.88 310.54C495.289 316.568 497.534 323.3 497.869 325.5C498.205 327.7 499.081 331.75 499.818 334.5C500.554 337.25 501.293 341.075 501.46 343C501.748 346.327 501.593 346.516 498.329 346.827C496.44 347.007 491.152 346.623 486.579 345.974L478.263 344.793V334.057C478.263 326.57 478.872 320.937 480.276 315.448C482.574 306.463 486.01 298.749 487.494 299.244C488.048 299.428 490.472 304.512 492.88 310.54ZM1139.68 308.025C1141.47 312.136 1143.79 317.898 1144.83 320.828L1146.71 326.156L1141.74 330.594C1139 333.034 1135.41 335.752 1133.76 336.633C1132.11 337.513 1129.8 339.115 1128.62 340.192C1127.37 341.328 1126.22 341.737 1125.87 341.167C1125.53 340.627 1125.72 335.755 1126.27 330.342C1127.8 315.504 1132.71 299.315 1135.4 300.211C1135.96 300.398 1137.88 303.914 1139.68 308.025Z" fill="#0095CA"/>
</svg>
