<svg width="14" height="17" viewBox="0 0 14 17" fill="none" xmlns="http://www.w3.org/2000/svg">
<path d="M5.33333 6.37404C5.33333 5.53449 5.99243 4.88361 6.76923 4.88361C7.54603 4.88361 8.20513 5.53449 8.20513 6.37404C8.20513 7.21359 7.54603 7.86447 6.76923 7.86447C5.99243 7.86447 5.33333 7.21359 5.33333 6.37404Z" fill="white"/>
<path fill-rule="evenodd" clip-rule="evenodd" d="M5.39332 15.459C5.68691 15.7257 5.93198 15.9391 6.10433 16.0864L6.32967 16.3158C6.57097 16.5614 6.96749 16.5614 7.20879 16.3158L7.43414 16.0864C7.60648 15.9391 7.85155 15.7257 8.14514 15.459C8.73152 14.9264 9.51538 14.1779 10.3012 13.317C11.0849 12.4584 11.8832 11.4745 12.4888 10.4708C13.0869 9.47965 13.5385 8.40239 13.5385 7.37261C13.5385 3.5884 10.5191 0.5 6.76923 0.5C3.01934 0.5 0 3.5884 0 7.37261C0 8.40239 0.451585 9.47965 1.04965 10.4708C1.65529 11.4745 2.45353 12.4584 3.23724 13.317C4.02309 14.1779 4.80694 14.9264 5.39332 15.459ZM4.10256 6.37404C4.10256 4.88943 5.28025 3.6562 6.76923 3.6562C8.25822 3.6562 9.4359 4.88943 9.4359 6.37404C9.4359 7.85865 8.25822 9.09188 6.76923 9.09188C5.28024 9.09188 4.10256 7.85865 4.10256 6.37404Z" fill="white"/>
</svg>
