<svg width="26" height="26" viewBox="0 0 26 26" fill="none" xmlns="http://www.w3.org/2000/svg">
<path d="M13 6C9.13401 6 6 9.13401 6 13C6 16.866 9.13401 20 13 20C16.866 20 20 16.866 20 13C20 9.13401 16.866 6 13 6Z" fill="black"/>
<path d="M1 12C0.447715 12 0 12.4477 0 13C0 13.5523 0.447715 14 1 14H4C4.55228 14 5 13.5523 5 13C5 12.4477 4.55228 12 4 12H1Z" fill="black"/>
<path d="M7.26777 20.4571C7.65829 20.0666 7.65829 19.4334 7.26777 19.0429C6.87724 18.6524 6.24408 18.6524 5.85355 19.0429L4.79289 20.1036C4.40237 20.4941 4.40237 21.1272 4.79289 21.5178C5.18342 21.9083 5.81658 21.9083 6.20711 21.5178L7.26777 20.4571Z" fill="black"/>
<path d="M6.20711 4.04289C5.81658 3.65237 5.18342 3.65237 4.79289 4.04289C4.40237 4.43342 4.40237 5.06658 4.79289 5.45711L5.85355 6.51777C6.24408 6.90829 6.87724 6.90829 7.26777 6.51777C7.65829 6.12724 7.65829 5.49408 7.26777 5.10355L6.20711 4.04289Z" fill="black"/>
<path d="M14 1C14 0.447715 13.5523 0 13 0C12.4477 0 12 0.447715 12 1V4C12 4.55228 12.4477 5 13 5C13.5523 5 14 4.55228 14 4V1Z" fill="black"/>
<path d="M21.5178 5.45711C21.9083 5.06658 21.9083 4.43342 21.5178 4.04289C21.1272 3.65237 20.4941 3.65237 20.1036 4.04289L19.0429 5.10355C18.6524 5.49408 18.6524 6.12724 19.0429 6.51777C19.4334 6.90829 20.0666 6.90829 20.4571 6.51777L21.5178 5.45711Z" fill="black"/>
<path d="M22 12C21.4477 12 21 12.4477 21 13C21 13.5523 21.4477 14 22 14H25C25.5523 14 26 13.5523 26 13C26 12.4477 25.5523 12 25 12H22Z" fill="black"/>
<path d="M20.4571 19.0429C20.0666 18.6524 19.4334 18.6524 19.0429 19.0429C18.6524 19.4334 18.6524 20.0666 19.0429 20.4571L20.1036 21.5178C20.4941 21.9083 21.1272 21.9083 21.5178 21.5178C21.9083 21.1272 21.9083 20.4941 21.5178 20.1036L20.4571 19.0429Z" fill="black"/>
<path d="M14 22C14 21.4477 13.5523 21 13 21C12.4477 21 12 21.4477 12 22V25C12 25.5523 12.4477 26 13 26C13.5523 26 14 25.5523 14 25V22Z" fill="black"/>
</svg>
