<svg width="16" height="17" viewBox="0 0 16 17" fill="none" xmlns="http://www.w3.org/2000/svg">
<path d="M9.37901 6.25085L6.39294 9.23679C6.00957 9.62016 5.4205 9.70751 4.94238 9.45189L1.83721 7.79178L1.777 7.74878C1.33103 7.43025 0.961918 7.16661 0.694305 6.93637C0.430273 6.70921 0.165652 6.43463 0.0628256 6.06883C-0.0766694 5.57257 0.0189592 5.04013 0.321547 4.6234C0.54477 4.31597 0.888127 4.15009 1.21458 4.02847C1.54593 3.90502 1.98434 3.78547 2.51413 3.64099L12.8444 0.823681C13.2915 0.701751 13.6677 0.59913 13.972 0.545297C14.2801 0.49079 14.6162 0.465107 14.9388 0.58829C15.3868 0.75932 15.7406 1.1131 15.9116 1.56104C16.0347 1.88335 16.0093 2.21921 15.955 2.52752C15.901 2.83366 15.7977 3.21237 15.6749 3.66284L12.8603 13.9827C12.7155 14.5138 12.5956 14.9533 12.4718 15.2854C12.3501 15.6119 12.1842 15.9553 11.8768 16.1785C11.46 16.481 10.9276 16.5767 10.4313 16.4372C10.0655 16.3343 9.79083 16.0696 9.56362 15.8055C9.33314 15.5377 9.06924 15.1682 8.75042 14.7219L8.70801 14.6625L7.04811 11.5576C6.79249 11.0795 6.87985 10.4905 7.26321 10.1071L10.2493 7.12116C10.4896 6.88084 10.4896 6.4912 10.2493 6.25087C10.009 6.01054 9.61934 6.01054 9.37901 6.25085Z" fill="white"/>
</svg>
