<svg width="16" height="16" viewBox="0 0 16 16" fill="none" xmlns="http://www.w3.org/2000/svg">
<path fill-rule="evenodd" clip-rule="evenodd" d="M8 0C12.4183 0 16 3.58172 16 8C16 12.4183 12.4183 16 8 16H2.69686C2.30989 16 1.97615 16 1.70307 15.9735C1.41386 15.9455 1.12849 15.8833 0.863942 15.717C0.629104 15.5695 0.43053 15.3709 0.282972 15.1361C0.116741 14.8715 0.054504 14.5861 0.0264549 14.2969C-2.97035e-05 14.0238 -1.56184e-05 13.6901 8.14102e-07 13.3031V8C8.14102e-07 3.58172 3.58172 0 8 0ZM7.99996 1.84613C11.3986 1.84613 14.1538 4.6013 14.1538 7.99998C14.1538 11.3987 11.3986 14.1538 7.99996 14.1538H3.92062C3.62296 14.1538 3.36623 14.1538 3.15617 14.1335C2.9337 14.1119 2.71419 14.064 2.51069 13.9362C2.33004 13.8226 2.17729 13.6699 2.06379 13.4893C1.93592 13.2857 1.88804 13.0662 1.86647 12.8438C1.84609 12.6337 1.8461 12.377 1.84612 12.0793V7.99998C1.84612 4.6013 4.60129 1.84613 7.99996 1.84613Z" fill="white"/>
<path fill-rule="evenodd" clip-rule="evenodd" d="M8 3C10.7614 3 13 5.23858 13 8C13 10.7614 10.7614 13 8 13H4.68554C4.44368 13 4.2351 13 4.06442 12.9835C3.88366 12.9659 3.70531 12.927 3.53996 12.8231C3.39319 12.7309 3.26908 12.6068 3.17686 12.46C3.07296 12.2947 3.03407 12.1163 3.01654 11.9356C2.99998 11.7649 2.99999 11.5563 3 11.3145V11.3145V8C3 5.23858 5.23858 3 8 3ZM6.48602 5.15457C6.8996 4.98248 7.38232 5.10239 7.6565 5.45672C7.69389 5.50504 7.72829 5.56352 7.77326 5.63997L7.78178 5.65446L7.86068 5.78832L7.87208 5.80767L7.87208 5.80768C7.96174 5.95993 8.03251 6.08011 8.07333 6.1878C8.10525 6.27202 8.11044 6.35323 8.1113 6.41021C8.11324 6.53831 8.07592 6.66057 8.0335 6.76326C7.99035 6.86771 7.93348 6.97138 7.88033 7.06427C7.86294 7.09466 7.84619 7.12351 7.83004 7.15131C7.79398 7.21342 7.76094 7.27031 7.73057 7.32756C7.6868 7.41005 7.6608 7.47141 7.64972 7.51653C7.63534 7.57509 7.62946 7.63512 7.63269 7.69529C7.63469 7.71584 7.6604 7.94164 7.84947 8.26285C8.01105 8.53736 8.18486 8.69908 8.25129 8.7552C8.25922 8.7619 8.27184 8.77055 8.2939 8.7824C8.31481 8.79363 8.33602 8.80337 8.35745 8.81162C8.39742 8.82701 8.46029 8.83873 8.55331 8.84441C8.63733 8.84955 8.72873 8.84908 8.8311 8.84855H8.83111L8.85935 8.84841C8.96846 8.84789 9.08994 8.84789 9.20453 8.85833C9.31733 8.86861 9.44411 8.89048 9.55803 8.94515C9.6405 8.98473 9.74815 9.04738 9.82903 9.15492C9.89044 9.23658 9.954 9.34458 10.0335 9.47973L10.0398 9.49043L10.1187 9.62437L10.126 9.63687C10.1718 9.71451 10.2065 9.77346 10.2307 9.82998C10.4079 10.2435 10.2707 10.7195 9.90926 10.9868C9.85963 11.0235 9.79969 11.0574 9.71893 11.1031L9.7189 11.1031L9.70651 11.1102L9.70177 11.1128L9.69693 11.1153C9.33701 11.2994 8.93192 11.2345 8.61315 11.1205C8.28969 11.0048 8.00125 10.8199 7.82871 10.681L7.82239 10.6761C7.81649 10.6715 7.80857 10.6651 7.79872 10.657C7.77901 10.6406 7.75159 10.617 7.71714 10.5853C7.64822 10.5219 7.55124 10.426 7.43166 10.2908C7.19246 10.0205 6.86319 9.59332 6.48732 8.95475C6.11164 8.31651 5.91752 7.85455 5.81712 7.54512C5.76689 7.39031 5.74003 7.27342 5.72568 7.19154C5.71851 7.1506 5.71446 7.11842 5.71219 7.09465L5.71049 7.07415C5.68904 6.94031 5.67798 6.61767 5.72794 6.28689C5.75498 6.10794 5.80166 5.91332 5.88191 5.7364C5.96182 5.56021 6.08257 5.38523 6.26658 5.27044L6.2712 5.26755L6.27594 5.26486L6.28458 5.25997L6.28458 5.25997C6.36771 5.21288 6.42816 5.17865 6.48602 5.15457Z" fill="white"/>
</svg>
